<svg id="Layer_1" data-name="Layer 1" xmlns="http://www.w3.org/2000/svg" viewBox="0 0 395.86 409.37"><defs><style>.cls-1{fill:#ed1c24;}.cls-1,.cls-2,.cls-4{fill-rule:evenodd;}.cls-2{fill:#231f20;}.cls-3{fill:none;stroke:#231f20;stroke-miterlimit:2.61;stroke-width:1px;}.cls-4,.cls-7{fill:#fff;}.cls-5,.cls-7{font-size:35.79px;font-family:TimesNewRomanPS-BoldItalicMT, Times New Roman;font-style:italic;}.cls-5,.cls-6{fill:#58595b;}.cls-5,.cls-6,.cls-7{font-weight:700;}.cls-6{font-size:51.28px;font-family:TimesNewRomanPS-BoldMT, Times New Roman;}</style></defs><title>logo 25 years</title><path class="cls-1" d="M157.61,50.46C115.3,34.83,61.66,72,41.85,149,98.43,42.22,214.2,54.82,97.14,275.09l15.55-3.45c53.88-104.86,82.09-204.73,44.92-221.18" transform="translate(0 -2)"/><path class="cls-1" d="M13.16,353c-7.76-12.74,1.89-27.5,61.92-44.47-30,36-48.83,50.77-61.92,44.47m70.66-74.64c44.46-15.09,88.92-22.23,133.39-24.62l3.18,42.88c-45.62-.82-94.71-1.66-131.8,10.32C47,365.21,26.7,377.73,6,365.65-8.77,346.06-1,315.66,83.82,278.31Z" transform="translate(0 -2)"/><path class="cls-1" d="M209.27,88.54C257.94,84.2,319.42,65.89,306.93,2c29.95,55-1.58,100.05-94.48,122.27-6.69,16.22-10.51,34.6-8.73,57.17,24.61,11.64,58.75,6.62,71.45,42.08,2.39,13.5,0,27,0,40.49l-24.61.8c9.27-35.73-41.82-34.94-62.72-52.4-3-43.55,5.38-84.56,21.43-123.87" transform="translate(0 -2)"/><path class="cls-1" d="M224.92,365.21l-39.18,37.16c-12.39,11.3-34,13.53-43.38-2.49l-9.31-16q41.65,10.47,74.16-18.69Z" transform="translate(0 -2)"/><path class="cls-1" d="M327.58,240.2,303,256.87c19.58-32,29.11-75.76,25.4-120.48l16.68,33.14h50.82l-34.94,41.29L372,260.05Z" transform="translate(0 -2)"/><path class="cls-2" d="M264.06,187c27.25,14.35,42.33,37.93,31.47,73.46,23.76-35.76,31.94-81.16,31.25-125.87-9,33.71-30.42,50.47-62.72,52.41" transform="translate(0 -2)"/><path class="cls-2" d="M308.18,147.21a62.22,62.22,0,0,1-38.11,19.85l12.18-20.15Z" transform="translate(0 -2)"/><path class="cls-2" d="M295.38,150.55l-16.88,10,11,15.85a22.2,22.2,0,0,0,15.89-10.53Z" transform="translate(0 -2)"/><line class="cls-3" x1="272.61" y1="162.68" x2="277.2" y2="169.82"/><path class="cls-4" d="M301.73,177.7c5.82,4.11,4.66,10.65-.34,18.14-1.93,4.82-2.68,10.34,3.13,12.22,12.3,1,9.32-29.4-2.79-30.36" transform="translate(0 -2)"/><polygon class="cls-1" points="326 102.71 332.31 102.75 327.69 107.64 329.61 113.66 323.52 110.78 318.39 114.46 319.25 107.78 314.17 104.04 320.79 102.79 322.77 96.8 326 102.71"/><text class="cls-5" transform="translate(227.62 297.71)">of Brand</text><text class="cls-6" transform="translate(99.19 348.7)">Graphic Era</text><text class="cls-7" transform="translate(128.8 290.29)">Y</text><text class="cls-7" transform="translate(146.7 290.29)">ears</text><polygon class="cls-2" points="276.21 166.62 274.79 167.53 277.01 170.87 278.38 170.06 276.21 166.62"/></svg>