<svg id="Layer_1" data-name="Layer 1" xmlns="http://www.w3.org/2000/svg" viewBox="0 0 277 67"><defs><style>.cls-1,.cls-10{fill:#dc2e27;}.cls-2{fill:#231f20;}.cls-3{fill:#f48120;}.cls-10,.cls-11,.cls-3,.cls-4,.cls-5,.cls-7{fill-rule:evenodd;}.cls-12,.cls-5{fill:#fff;}.cls-6,.cls-7{fill:#a8a2a0;}.cls-13,.cls-8{fill:none;stroke-miterlimit:2.61;}.cls-8{stroke:#a6a8ab;stroke-width:0.71px;}.cls-9{fill:#a6a8ab;}.cls-11{fill:#f4660a;}.cls-13{stroke:#f48120;stroke-width:1.5px;}.cls-14{font-size:5.46px;font-family:ArialMT, Arial;}</style></defs><title>GEHU_Logo-01</title><path class="cls-1" d="M190.24,34.43a12.21,12.21,0,0,1,1.46-6.35q2.43-4.08,8-4.19a12.21,12.21,0,0,1,4.26.75,3.13,3.13,0,0,1,2,3.29,2.69,2.69,0,0,1-1,2.14,3.54,3.54,0,0,1-2.31.86,3.07,3.07,0,0,1-1.82-.63l-.33-.3a3.78,3.78,0,0,0-.42-.35.48.48,0,0,0-.29-.1c-.28,0-.45.12-.49.35a1,1,0,0,1-.62-1A1.16,1.16,0,0,1,199,28a1.39,1.39,0,0,1,1-.38,5.64,5.64,0,0,1,.76.07,4.4,4.4,0,0,0,.63.08.63.63,0,0,0,.42-.16.52.52,0,0,0,.19-.42c0-.31-.25-.6-.75-.89a3.78,3.78,0,0,0-2-.64,4.56,4.56,0,0,0-2.86.89,5.1,5.1,0,0,0-1.68,2.32,8.75,8.75,0,0,0-.54,3.08,8.61,8.61,0,0,0,.48,3.21A4.09,4.09,0,0,0,196.1,37a9.68,9.68,0,0,0,4.81,1,6,6,0,0,0,3.29-.76,3.19,3.19,0,0,0,1.46-1.89,2.59,2.59,0,0,1,1.46,1.07,3,3,0,0,1,.69,1.8,5.3,5.3,0,0,1-1.43,3.4A4.47,4.47,0,0,1,203,42.94a15.76,15.76,0,0,1-1.89-.11c-.65-.07-1.17-.11-1.54-.11s-.77,0-1.5.11a15.88,15.88,0,0,1-1.65.11,4.71,4.71,0,0,1-3.36-1.33A8.2,8.2,0,0,1,191,38.3a11.31,11.31,0,0,1-.71-3.87m-9-14.53q0-1.68,2.64-1.68t2.61,1.68c0,1.12-.89,1.68-2.68,1.68S181.23,21,181.23,19.9Zm.36,19.82V26.26c-1.41-.52-2.11-1-2.11-1.4s.58-.75,1.75-.75h5c1.31,0,2,.23,2,.68,0,.63-.7,1.11-2.11,1.47V39.72a.51.51,0,0,0,.23.45,5.51,5.51,0,0,0,.79.4A3.71,3.71,0,0,1,188,41a.69.69,0,0,1,.26.58c0,.39-.31.69-.93.91a5.22,5.22,0,0,1-1.68.34c-.19,0-.46,0-.81-.07a6.51,6.51,0,0,0-.94-.07,5,5,0,0,0-.78.07,6.92,6.92,0,0,1-.85.07,5.72,5.72,0,0,1-1.78-.34c-.65-.22-1-.52-1-.91a.76.76,0,0,1,.37-.66,11.61,11.61,0,0,1,1.17-.66Q181.59,40,181.59,39.72Zm-21,0V19.29a5.17,5.17,0,0,1-1.37-.52c-.47-.25-.71-.54-.71-.87,0-.53.59-.79,1.76-.79h5.07c1.26,0,1.89.26,1.89.79,0,.3-.19.57-.59.83a4,4,0,0,1-1.45.56v7a3.3,3.3,0,0,0,.74-.22c.24-.11.56-.28.95-.5s.68-.38.85-.46a6.85,6.85,0,0,1,3.53-1,4.63,4.63,0,0,1,3.93,1.57,5,5,0,0,1,.82,3.07v11a.45.45,0,0,0,.24.39,4.25,4.25,0,0,0,.76.39,3.88,3.88,0,0,1,.82.47.7.7,0,0,1,.29.57c0,.27-.31.54-.93.82a3.74,3.74,0,0,1-1.68.43c-.19,0-.47,0-.83-.07a6.79,6.79,0,0,0-.92-.07,6.61,6.61,0,0,0-.85.07c-.35,0-.62.07-.79.07a5.71,5.71,0,0,1-1.77-.34c-.65-.22-1-.52-1-.91s.19-.5.57-.78a4.82,4.82,0,0,1,.56-.26,3.69,3.69,0,0,0,.73-.38.55.55,0,0,0,.25-.47V29.4a2.06,2.06,0,0,0-.69-1.5,2.17,2.17,0,0,0-1.53-.68,6.35,6.35,0,0,0-1.69.38,8.8,8.8,0,0,1-2.38.41V39.72a.5.5,0,0,0,.24.43,4.69,4.69,0,0,0,.74.39A3.65,3.65,0,0,1,167,41a.77.77,0,0,1,.27.6c0,.39-.31.69-.94.91a5,5,0,0,1-1.63.34c-.17,0-.42,0-.76-.07a6.69,6.69,0,0,0-1-.07,7.94,7.94,0,0,0-.87.07c-.4,0-.67.07-.81.07a5.49,5.49,0,0,1-1.74-.34c-.65-.22-1-.52-1-.91a.67.67,0,0,1,.31-.55,5.81,5.81,0,0,1,.87-.52C160.29,40.18,160.59,39.91,160.59,39.72Zm-21,6.65V27.3a1,1,0,0,0-.47-.82l-1-.72a1,1,0,0,1-.48-.83.07.07,0,0,0-.07-.07c.08-.5.47-.75,1.14-.75h5.65c.64,0,1,.28,1,.82a.42.42,0,0,1-.13.34,4.29,4.29,0,0,1-.49.38,3.32,3.32,0,0,0-.53.47.75.75,0,0,0-.18.5v.43l1.34-1.21a8.09,8.09,0,0,1,1.86-1.22,5.37,5.37,0,0,1,2.38-.51,5.62,5.62,0,0,1,3.78,1.36,8.35,8.35,0,0,1,2.36,3.44,11.79,11.79,0,0,1,.79,4.24,12.64,12.64,0,0,1-.92,4.7,9.32,9.32,0,0,1-2.75,3.81,6.71,6.71,0,0,1-4.37,1.49,5.26,5.26,0,0,1-2.26-.5,4.21,4.21,0,0,1-1.7-1.42,3.68,3.68,0,0,1-.64-2.15,3.61,3.61,0,0,1,.5-1.8,4.66,4.66,0,0,0,.5-1.05,1,1,0,0,0-.29-.69,2.73,2.73,0,0,1,.68-.07,1.79,1.79,0,0,1,1.89,1.25,4,4,0,0,0,.58,1.13,1.32,1.32,0,0,0,1,.33,3.4,3.4,0,0,0,2.28-.8,4.94,4.94,0,0,0,1.42-2.13,8.1,8.1,0,0,0,.48-2.79q0-5.48-4.54-5.63a5.39,5.39,0,0,0-1.7.46,8.21,8.21,0,0,0-1.91,1c-.48.36-.71.66-.71.9v7.38a4.77,4.77,0,0,0-1,2.72,4.63,4.63,0,0,0,1,2.61v4.53a.52.52,0,0,0,.25.47,5.32,5.32,0,0,0,.78.4,4.13,4.13,0,0,1,.81.43.67.67,0,0,1,.27.56c0,.28-.42.62-1.25,1a4.93,4.93,0,0,1-1.36.24c-.2,0-.47,0-.81,0a8.27,8.27,0,0,0-1-.06c-.17,0-.43,0-.79.06s-.64,0-.82,0a5.36,5.36,0,0,1-1.73-.35c-.65-.24-1-.56-1-1,0-.22.18-.44.53-.68l.54-.33a7,7,0,0,0,.72-.47C139.5,46.61,139.59,46.48,139.59,46.37Zm-9.72-9.14V29.11a3.11,3.11,0,0,0-1.08-2.56,4.4,4.4,0,0,0-2.81-.87,8.88,8.88,0,0,0-2.43.29c-.86.15-1.32.51-1.4,1.07s.54.82,1.61.82a17.08,17.08,0,0,0,2-.18c.9-.11,1.48-.17,1.73-.17,1.07,0,1.61.36,1.61,1.1a1.31,1.31,0,0,1-.48,1,5.59,5.59,0,0,1-1.27.86l-1.61.82A9.44,9.44,0,0,0,123.28,33a3.1,3.1,0,0,0-.91,2.31,2.38,2.38,0,0,0,.91,2.06,3.86,3.86,0,0,0,2.34.66,8.56,8.56,0,0,0,2.23-.38A8.29,8.29,0,0,1,129.87,37.23Zm-13,.31a4.91,4.91,0,0,1,.7-2.59,7.37,7.37,0,0,1,1.8-2,14.71,14.71,0,0,1,2.31-1.46c.8-.41,1.76-.85,2.87-1.32.63-.23,1-.38,1.14-.44a.46.46,0,0,0,.25-.31q0-.36-.57-.36a10.93,10.93,0,0,0-2,.25,11.17,11.17,0,0,1-1.9.26,4.82,4.82,0,0,1-2.54-.69,2.18,2.18,0,0,1-1.14-2,2.22,2.22,0,0,1,1.35-2.09,6.37,6.37,0,0,1,3-.69q.45,0,1.56.06c.74,0,1.31,0,1.69,0s1.29,0,2.38,0l2.15-.06c1.86,0,3.15.55,3.87,1.64.58.92.88,2.7.88,5.33V40c1,.69,1.54,1.22,1.54,1.6s-.72.88-2,1.24a13.89,13.89,0,0,1-2.18.15,15.74,15.74,0,0,1-2-.22,17.57,17.57,0,0,0-2.28-.21,20,20,0,0,0-2.4.21,18.6,18.6,0,0,1-2.42.22,6.79,6.79,0,0,1-3-.66,5.29,5.29,0,0,1-2.21-1.89A5,5,0,0,1,116.91,37.54Zm-14,2.11V27.21a1.13,1.13,0,0,0-.23-.72,3.41,3.41,0,0,0-.7-.59,5.52,5.52,0,0,1-.67-.48,1,1,0,0,1-.26-.56c0-.34.11-.54.33-.62a2.85,2.85,0,0,1,1-.13h5.72a7.17,7.17,0,0,1,1,0,.71.71,0,0,1,.36.64.75.75,0,0,1-.23.57,4.79,4.79,0,0,1-.7.45,4,4,0,0,0-.71.47.7.7,0,0,0-.25.55v.38A5.89,5.89,0,0,0,109.34,26c.81-.69,1.42-1.19,1.83-1.48a2.54,2.54,0,0,1,1.48-.44,3,3,0,0,1,1.68.51A3.53,3.53,0,0,1,115.51,26a3.86,3.86,0,0,1,.43,1.74,5,5,0,0,1-.79,2.89,6.33,6.33,0,0,1-2.36,2,4,4,0,0,0-.71.29c-.06,0-.13.06-.2.18a.36.36,0,0,1,.13.21,1,1,0,0,1-.35.07c-.79,0-1.18-.37-1.18-1.1a1.59,1.59,0,0,1,.11-.62c.07-.19.18-.41.31-.69a5.6,5.6,0,0,0,.32-.75,2.17,2.17,0,0,0,.11-.74,1.11,1.11,0,0,0-.37-.94,1.31,1.31,0,0,0-.84-.3,5.3,5.3,0,0,0-1.29.38,5.18,5.18,0,0,1-1.28.37V39.72a.5.5,0,0,0,.22.45,5,5,0,0,0,.77.4,4.3,4.3,0,0,1,.79.45.74.74,0,0,1,.26.59c0,.37-.31.66-.94.9a4.84,4.84,0,0,1-1.63.35,7.45,7.45,0,0,1-.84-.07,6,6,0,0,0-.92-.07,5.89,5.89,0,0,0-.85.07c-.35,0-.6.07-.75.07a5.88,5.88,0,0,1-1.81-.31c-.65-.21-1-.52-1-.94a.89.89,0,0,1,.61-.78l.54-.28a3.35,3.35,0,0,0,.69-.42A.6.6,0,0,0,103,39.65ZM77.63,30.73a17.79,17.79,0,0,1,2.06-8.93,9.6,9.6,0,0,1,3.73-3.55,12,12,0,0,1,5.91-1.35L91.7,17c.68,0,1.29,0,1.86.08s1.06.07,1.48.13a4.43,4.43,0,0,1,1.79.68,1.51,1.51,0,0,1,.61,1.29,1.74,1.74,0,0,1-.57,1.31,5.69,5.69,0,0,1-1.4,1l-1.61.8c-.79.36-2.42,1.16-4.89,2.42q-1.92,1.2-1.92,1.83a2.4,2.4,0,0,0,.12.59,2.57,2.57,0,0,1,.13.8,1.79,1.79,0,0,1-.45,1.27,1.74,1.74,0,0,1-1.34.48A1.55,1.55,0,0,1,84.23,29a2.16,2.16,0,0,1-.47-1.39,2.38,2.38,0,0,1,.72-1.7,7.69,7.69,0,0,1,1.7-1.34l2-1.2c1.94-1.14,3-1.75,3.06-1.82.65-.57,1-1,1-1.32s-.28-.76-.84-.95a5.52,5.52,0,0,0-1.87-.3,7.71,7.71,0,0,0-5.86,2.14Q81.51,23.44,81.51,28c0,3.91,1.12,6.77,3.36,8.56a5.74,5.74,0,0,0,3.42.94,11.51,11.51,0,0,0,3.07-.29,1.42,1.42,0,0,0,1.11-1.39V30.66a1.28,1.28,0,0,0-.54-.93l-1.08-.93a1.26,1.26,0,0,1-.55-.93c0-.52.51-.79,1.53-.79a13.56,13.56,0,0,1,1.5.12,15.57,15.57,0,0,0,1.58.1,10.77,10.77,0,0,0,1.54-.1,7.88,7.88,0,0,1,1.24-.12,5.45,5.45,0,0,1,1.22.22c.5.08.75.24.75.5s-.19.49-.58.78l-.75.6a4.94,4.94,0,0,0-.72.65,1.63,1.63,0,0,0-.32,1v7.89a1.32,1.32,0,0,0,.2.74,4.53,4.53,0,0,0,.64.71,5.61,5.61,0,0,1,.66.73,1.22,1.22,0,0,1,.22.74c0,.27-.47.55-1.4.83a7.45,7.45,0,0,1-2.57.43c-.4,0-1,0-1.8-.11s-1.4-.11-1.8-.11c-.64,0-1.37,0-2.18.11s-1.35.11-1.61.11a8.69,8.69,0,0,1-5.34-1.71,11,11,0,0,1-3.49-4.53A15.08,15.08,0,0,1,77.63,30.73Z"/><path class="cls-2" d="M269.64,37.23V29.11a3.11,3.11,0,0,0-1.08-2.56,4.39,4.39,0,0,0-2.8-.87,8.91,8.91,0,0,0-2.44.29c-.86.15-1.32.51-1.4,1.07s.54.82,1.62.82a17,17,0,0,0,2-.18c.9-.11,1.48-.17,1.74-.17,1.07,0,1.6.36,1.6,1.1a1.33,1.33,0,0,1-.47,1,5.92,5.92,0,0,1-1.28.86l-1.6.82A9.51,9.51,0,0,0,263.05,33a3.13,3.13,0,0,0-.91,2.31,2.41,2.41,0,0,0,.91,2.06,3.86,3.86,0,0,0,2.34.66,8.56,8.56,0,0,0,2.23-.38,8.29,8.29,0,0,1,2-.37m-13,.31a4.92,4.92,0,0,1,.71-2.59,7.34,7.34,0,0,1,1.79-2,15.19,15.19,0,0,1,2.31-1.46c.8-.41,1.76-.85,2.87-1.32.63-.23,1-.38,1.14-.44a.47.47,0,0,0,.26-.31c0-.24-.2-.36-.58-.36a10.93,10.93,0,0,0-2,.25,11,11,0,0,1-1.9.26,4.76,4.76,0,0,1-2.53-.69,2.17,2.17,0,0,1-1.15-2A2.22,2.22,0,0,1,259,24.8a6.4,6.4,0,0,1,3-.69c.3,0,.83,0,1.56.06s1.31,0,1.69,0,1.3,0,2.39,0l2.14-.06c1.86,0,3.15.55,3.87,1.64q.89,1.38.88,5.33V40c1,.69,1.54,1.22,1.54,1.6s-.71.88-2,1.24a13.89,13.89,0,0,1-2.18.15,15.91,15.91,0,0,1-2-.22,17.42,17.42,0,0,0-2.28-.21,19.88,19.88,0,0,0-2.39.21,18.86,18.86,0,0,1-2.43.22,6.83,6.83,0,0,1-3-.66,5.35,5.35,0,0,1-2.21-1.89A5,5,0,0,1,256.68,37.54Zm-14,2.11V27.21a1.13,1.13,0,0,0-.23-.72,3.41,3.41,0,0,0-.7-.59,6.48,6.48,0,0,1-.67-.48,1,1,0,0,1-.26-.56c0-.34.12-.54.34-.62a2.75,2.75,0,0,1,1-.13h5.72a7.34,7.34,0,0,1,1,0,.72.72,0,0,1,.35.64.71.71,0,0,1-.23.57,4.29,4.29,0,0,1-.7.45,4.35,4.35,0,0,0-.71.47.7.7,0,0,0-.25.55v.38A5.89,5.89,0,0,0,249.11,26c.81-.69,1.43-1.19,1.84-1.48a2.5,2.5,0,0,1,1.47-.44,3.05,3.05,0,0,1,1.69.51A3.61,3.61,0,0,1,255.29,26a3.85,3.85,0,0,1,.42,1.74,5,5,0,0,1-.79,2.89,6.33,6.33,0,0,1-2.36,2,3.79,3.79,0,0,0-.7.29q-.11,0-.21.18c.09.09.14.16.14.21a1.08,1.08,0,0,1-.36.07c-.79,0-1.18-.37-1.18-1.1a1.8,1.8,0,0,1,.11-.62c.07-.19.18-.41.31-.69a4.55,4.55,0,0,0,.32-.75,2.17,2.17,0,0,0,.12-.74,1.12,1.12,0,0,0-.38-.94,1.31,1.31,0,0,0-.84-.3,5.3,5.3,0,0,0-1.29.38,5.07,5.07,0,0,1-1.28.37V39.72a.5.5,0,0,0,.22.45,5.57,5.57,0,0,0,.77.4,4.45,4.45,0,0,1,.8.45.77.77,0,0,1,.25.59c0,.37-.31.66-.94.9a4.79,4.79,0,0,1-1.63.35,7.45,7.45,0,0,1-.84-.07,6,6,0,0,0-.92-.07,5.89,5.89,0,0,0-.85.07c-.35,0-.6.07-.75.07a5.88,5.88,0,0,1-1.81-.31c-.65-.21-1-.52-1-.94a.89.89,0,0,1,.62-.78,5.43,5.43,0,0,1,.53-.28,3.1,3.1,0,0,0,.69-.42A.6.6,0,0,0,242.72,39.65ZM222.21,38V22.76a2.48,2.48,0,0,0-.6-1.77,9.64,9.64,0,0,0-2-1.41c-.65-.38-1-.73-1-1.07.06-.51.59-.87,1.57-1.08a16.94,16.94,0,0,1,3.49-.32H234a12.38,12.38,0,0,1,3.67.38c.71.26,1.08.65,1.12,1.15q0,1.29-3.15,3.15c-.81.48-1.92,1.1-3.3,1.84L230,24.92q-1.68.88-1.68,1.26c0,.05,0,.1.11.17a.34.34,0,0,0,.25.11,5.71,5.71,0,0,0,1.77-.48,5.59,5.59,0,0,1,2-.49,4.76,4.76,0,0,1,1.61.29,3.31,3.31,0,0,1,1.32.83,1.85,1.85,0,0,1,.53,1.31c0,1.23-.51,1.93-1.54,2.12v-.29c0-.43-.25-.64-.75-.64a6.21,6.21,0,0,0-1.59.23l-1.79.46a6.14,6.14,0,0,1-1.59.24,2.46,2.46,0,0,1-1.85-.75,2.34,2.34,0,0,1-.72-1.65,2.45,2.45,0,0,1,.47-1.47,11.26,11.26,0,0,1,1.35-1.45,21.55,21.55,0,0,1,2.13-1.58l1.77-1.21c.64-.56,1-.92,1.21-1.08a.84.84,0,0,0,.26-.59q0-.84-1.26-1.11a10,10,0,0,0-2-.14,6,6,0,0,0-1.93.21c-.81.15-1.22.78-1.22,1.89l.08,3.53a4.22,4.22,0,0,0-1.68,3.15,3.63,3.63,0,0,0,1.68,2.64v5a2.07,2.07,0,0,0,.61,1.62,3.64,3.64,0,0,0,1.78.81,17.46,17.46,0,0,0,4.18.36,18.75,18.75,0,0,0,2-.09,3.63,3.63,0,0,0,1.49-.52,1.82,1.82,0,0,0,.83-1.28,3,3,0,0,1,1.4,1.05,3.24,3.24,0,0,1,.63,2.08,2.86,2.86,0,0,1-1.41,2.69,6.6,6.6,0,0,1-3.41.82c-.56,0-1.45,0-2.68-.11s-2.32-.11-3.24-.11-2.3,0-3.9.11-2.55.11-2.89.11a6.81,6.81,0,0,1-1.79-.22,5.38,5.38,0,0,1-1.31-.55c-.39-.22-.59-.46-.59-.69,0-.4.4-.81,1.19-1.26l.86-.49a5.71,5.71,0,0,0,1.23-.86A1.27,1.27,0,0,0,222.21,38Z"/><path class="cls-3" d="M266.24,46.34h3.07l1.82,2.41,1.8-2.41H276l-3.48,4.16v3h-2.78v-3Zm-8.77,0h8.43v1.77h-2.83V53.5H260.3V48.11h-2.83Zm-4.13,0h2.78V53.5h-2.78Zm-9.63,4.79,2.62-.13a1.42,1.42,0,0,0,.35.77,2,2,0,0,0,2.14.22.57.57,0,0,0,0-1,4.38,4.38,0,0,0-1.42-.41,6.87,6.87,0,0,1-2.59-.87,1.61,1.61,0,0,1-.79-1.38,1.66,1.66,0,0,1,.4-1,2.56,2.56,0,0,1,1.21-.77,6.8,6.8,0,0,1,2.2-.28,5.4,5.4,0,0,1,2.62.51,2.11,2.11,0,0,1,1.07,1.62l-2.6.13a1.08,1.08,0,0,0-.44-.71,1.63,1.63,0,0,0-.92-.22,1.34,1.34,0,0,0-.73.16.47.47,0,0,0-.24.4.41.41,0,0,0,.2.31,2.65,2.65,0,0,0,.92.26,14.2,14.2,0,0,1,2.6.63,2.63,2.63,0,0,1,1.14.8,1.68,1.68,0,0,1,.36,1.06,2,2,0,0,1-.47,1.26,3,3,0,0,1-1.34.89,6.59,6.59,0,0,1-2.15.3,5.24,5.24,0,0,1-3.17-.71A2.49,2.49,0,0,1,243.71,51.13Zm-6.45-1.88h1.17a6,6,0,0,0,.73-.1.7.7,0,0,0,.45-.23.57.57,0,0,0,.18-.41.61.61,0,0,0-.28-.54,2,2,0,0,0-1-.18h-1.22Zm-2.78,4.25V46.34h4.62a8.78,8.78,0,0,1,2,.17,2.1,2.1,0,0,1,1.09.66,1.67,1.67,0,0,1,.42,1.16,1.71,1.71,0,0,1-.32,1,2.23,2.23,0,0,1-.88.7,3.81,3.81,0,0,1-1,.28,3,3,0,0,1,.72.27,2.55,2.55,0,0,1,.44.37,3.6,3.6,0,0,1,.39.45l1.34,2.07h-3.13l-1.48-2.19a1.72,1.72,0,0,0-.5-.55,1.37,1.37,0,0,0-.68-.16h-.24v2.9Zm-9.08-7.16h7.41v1.53h-4.63V49h4.29v1.46h-4.29v1.41H233V53.5H225.4Zm-10.62,0h2.9l2,5.15,2-5.15h2.81l-3.33,7.16h-3Zm-3.88,0h2.78V53.5H210.9Zm-10.52,0H203l3.36,3.95V46.34H209V53.5h-2.62L203,49.57V53.5h-2.61Zm-4.62,0h2.77V50.6a2.9,2.9,0,0,1-.25,1.2,2.49,2.49,0,0,1-.77,1,3.36,3.36,0,0,1-1.11.6,6.9,6.9,0,0,1-1.94.24c-.44,0-.91,0-1.43-.08a4.32,4.32,0,0,1-1.29-.29,3.21,3.21,0,0,1-1-.61,2.1,2.1,0,0,1-.59-.83,3.52,3.52,0,0,1-.26-1.21V46.34h2.77V50.7a1.12,1.12,0,0,0,.4.92,1.77,1.77,0,0,0,1.13.33,1.74,1.74,0,0,0,1.12-.33,1.1,1.1,0,0,0,.4-.92Zm-18.36,0h2.77v5.4h4.33V53.5h-7.1Zm-8.35,0h2.77v5.4h4.33V53.5h-7.1Zm-4.76,0h2.78V53.5h-2.78Zm-10.53,0h2.77v2.5h3v-2.5h2.78V53.5h-2.78V50.6h-3v2.9h-2.77Z"/><path class="cls-4" d="M30.87,3.38l-1.62.23-.56-2c-2.06.11-4.07,1.06-5.91,1.49l.47,2.08-1.51.63L20.68,4.07a23,23,0,0,0-5.23,3l1,2a10.58,10.58,0,0,0-1.33.84c-.69-.39-.94-1-1.56-1.35-.74.73-1.46,1.14-2.26,2a14.63,14.63,0,0,0-2,2.26c.41.66.92.81,1.34,1.56-.3.49-.55.77-.82,1.26-.86-.24-1.14-.68-2-.92a19.52,19.52,0,0,0-3,5.38l1.67.82L6,22.46,3.86,22a50.51,50.51,0,0,0-1.49,5.94l2,.56-.22,1.61L2,30.16a25.33,25.33,0,0,0,0,6,6.18,6.18,0,0,0,2.07.19l.23,1.61-2,.56c.12,2.14,1.09,4,1.46,5.88L6,43.94l.64,1.52a12.49,12.49,0,0,0-1.73,1.11,23.35,23.35,0,0,0,3,5.17l1.94-1a13.13,13.13,0,0,0,.85,1.32c-.42.73-.93.9-1.33,1.56,1,1.68,2.84,2.91,4.21,4.26L15,56.47a10.73,10.73,0,0,1,1.26,1l-.9,1.87a24,24,0,0,0,5.21,3,1.39,1.39,0,0,0,.27-.3c.08-.11.22-.31.28-.42a3.11,3.11,0,0,0,.44-1l1.61.55-.46,2.14a50.52,50.52,0,0,0,5.94,1.5l.56-2,1.61.22c0,.37,0,.61,0,1,0,1.34.05.7.07.84l.09.3a21.15,21.15,0,0,0,5.84,0l.17-1c0-.39,0-.7,0-1.12l1.61-.23.55,2c2.15-.15,4.06-1.09,5.92-1.49l-.49-2.15,1.65-.58a4.8,4.8,0,0,0,1,1.74,23.07,23.07,0,0,0,5.16-3c-.2-.8-.69-1-.84-1.89a7,7,0,0,1,1.2-.9,4.66,4.66,0,0,1,1.41,1.35c1.15-.47,3.63-3.35,4.37-4.24-.44-.66-1-.84-1.34-1.56a9.24,9.24,0,0,1,.9-1.18c.73.09,1.09.6,1.9.84a23.41,23.41,0,0,0,3-5.17s-.08-.13-.1-.1l-1.62-1L62,44l2.14.45c.38-1.92,1.31-3.74,1.49-5.94l-2-.53.21-1.64c1.43-.08,1.46.1,2.1-.18a27.32,27.32,0,0,0,0-5.93l-2.1-.09-.23-1.62,2-.58c-.29-2.23-1.08-4-1.49-5.89L62,22.49l-.64-1.43,1.76-1.14a24,24,0,0,0-3-5.22c-.81.19-1.1.68-2,.88-.24-.41-.52-.79-.82-1.24l1.32-1.46c-.61-1.45-3-3.26-4.21-4.33l-1.5,1.39L51.65,9c.12-.74.67-1.19.85-1.91a23.7,23.7,0,0,0-5.16-3,4.29,4.29,0,0,0-1,1.7l-1.66-.56.51-2.14a33.54,33.54,0,0,0-6-1.5l-.52,2-1.64-.22c-.13-1.82.12-.86-.14-1.93a1.13,1.13,0,0,0,0-.15,27.41,27.41,0,0,0-5.94,0Z"/><path class="cls-5" d="M31.3,12.54a20.85,20.85,0,1,0,5.44,41.34c10.4-1.32,19.64-11.2,17.91-23.47a20.82,20.82,0,0,0-14-16.95,20.46,20.46,0,0,0-9.34-.92"/><path class="cls-5" d="M31.6,4l-3,.43-.47-2a19.47,19.47,0,0,0-4.49,1.22l.43,2.06-2.64,1a5.78,5.78,0,0,1-1-1.71,20.36,20.36,0,0,0-4.16,2.28l1,1.88a17.57,17.57,0,0,1-2.42,1.7L13.58,9.48a20.19,20.19,0,0,0-3.3,3.3l1.34,1.4a28.13,28.13,0,0,1-1.69,2.36l-1.87-1a20.19,20.19,0,0,0-2.3,4.17l1.74.92L6.42,23.3l-2.08-.44a27.18,27.18,0,0,0-1.15,4.56l2,.52-.36,2.91,7.73.09c.74-10.5,10.28-19.26,21.35-19.3s20.68,8.74,21.52,19.27L63,30.84a12.23,12.23,0,0,0-.22-2.95l2-.47a17.58,17.58,0,0,0-1.22-4.49l-2.06.43-1-2.64,1.72-1.07c-.4-1.43-1.61-2.89-2.25-4.08l-1.9,1a20.31,20.31,0,0,1-1.7-2.4l1.35-1.35a18.86,18.86,0,0,0-3.27-3.29L53,10.85a13.67,13.67,0,0,1-2.37-1.7l1-1.85A22,22,0,0,0,47.49,5l-1,1.76L43.88,5.66l.43-2a18.92,18.92,0,0,0-4.56-1.23l-.48,2-2.8-.34A7.29,7.29,0,0,1,36.31,2l-4.67-.06Z"/><path class="cls-6" d="M53.6,33.63l.19.17-.19-.17m-3-3a15.52,15.52,0,0,1,1.16,1.16l.37-.17h0a.66.66,0,0,0,.15.17,3.25,3.25,0,0,0,.32.3,13.66,13.66,0,0,0,1.91,1.44c.07-.58.07-.66-.45-.9h0ZM52,32.9l.39.39a2,2,0,0,0-.19-.21Zm-8.7-4.36a2.86,2.86,0,0,1-.21.86s0,.08,0,.18h0l.05.29.06,0h0c-.06-.16-.11-.33-.16-.5l.38-.18.17.25A7.09,7.09,0,0,1,43.31,28.54Zm.55-2v0a5.11,5.11,0,0,1-.13.53h0c0,.09-.06.18-.09.3a3.47,3.47,0,0,1-.17.47h0a1,1,0,0,0-.1.29l.28-.06h0c.06.16.14.35.25.59s.23.5.38.78a22,22,0,0,0,2.6,4.08l.21.19h0l.27.25h0l1.29,1.42,0,0a3.12,3.12,0,0,1,.74,1,.24.24,0,0,1,.09.14h0s0,0,0,0h0a.34.34,0,0,1,.11.14.18.18,0,0,0,0-.05h0a4.16,4.16,0,0,0,.59.11c.44.06,1,.08,1.43.11l.74,0h0l.3,0a6.57,6.57,0,0,0,1.13.05c.38-.05.38-.26.38-.63h0v-.12c-.21-.13-.43-.29-.67-.46s-.55-.41-.84-.64h0a12.2,12.2,0,0,1-3.52-4.15l.28-.12c-.08-.13-.18-.28-.29-.47l.31-.28a4.78,4.78,0,0,1,.58.52l.19-.27-.22-.12h0a7.3,7.3,0,0,0-1.2-.56,4.82,4.82,0,0,1-1.59-.88,4.5,4.5,0,0,1-.38-.34,2.19,2.19,0,0,0-.72-.52,7.73,7.73,0,0,1-1.56-.94A6.89,6.89,0,0,0,43.86,26.54ZM34.15,24.4A1.74,1.74,0,0,0,34,25.86l0-.08h0a6.68,6.68,0,0,0,.32-.86l-.26-.07Q34.11,24.61,34.15,24.4Zm-.49-1.62.06.19a2.74,2.74,0,0,1,.11-.28Zm-.33.44c.07.14.12.28.17.4a2.76,2.76,0,0,1,.08-.27l-.14-.07Zm.15,1.29c0,.07.05.14.07.21l.07-.18Zm-.17.56.12.22a2,2,0,0,1,0-.34Zm.81,3a9,9,0,0,1,.44.88,1.36,1.36,0,0,1,0-.44l0-.05,2-4.2a1.39,1.39,0,0,0,.17-.65s0-.05,0-.05-.05,0-.1,0a1.14,1.14,0,0,0-.49.22l-.4.31,0-.5.07-.61-.39-.1-.33.6-.32-.11c-.06.13-.11.26-.16.4h0l0,.12.08.17A3.59,3.59,0,0,1,34.38,26h0a1.79,1.79,0,0,1-.16.31.85.85,0,0,1-.18.22h0l-.21.15-.11-.24v0l-.13.05A6.54,6.54,0,0,1,34.3,28h0ZM29,24.73h0m4.5,11.11,0,0h0ZM27.09,23a.94.94,0,0,1,.42-.15h0s.1,0,.32-.16c.64-.47.8-.46,1-.46s.16,0,.46-.18l.14-.1a1.38,1.38,0,0,1,.36-.19l.38-.15-.09.39a1,1,0,0,1-.5.66,6.36,6.36,0,0,0-.8.74,3.7,3.7,0,0,1-.67.57,2.57,2.57,0,0,0-.7.63c-.16.24-.26.41-.34.54-.21.35-.26.44-.91.9h0a1.69,1.69,0,0,0-.36.34h0l-.24.25a1.09,1.09,0,0,1-.6.35h0a.81.81,0,0,0-.34.13,1.45,1.45,0,0,0-.31.3,2.13,2.13,0,0,1-.3.3,1.23,1.23,0,0,1-.39.22h0a.57.57,0,0,0-.34.3,3.3,3.3,0,0,0-.28,1.6c0,.12,0,.23,0,.34a1.88,1.88,0,0,0,.09.65c.1.39.15.6-.3.88h0l-.14.65v0a.64.64,0,0,1,.23.17l.17.16-.14.12a1,1,0,0,1,.24,0l.33,0-.1.16.19-.09.14-.07h0a5,5,0,0,1-.57-1l.36-.22,1.38,1.73.16,0a1.22,1.22,0,0,1,.73.11h0l.32.1h0l.27,0,.27,0,.25,0-.06.22a1.08,1.08,0,0,1,.89.16h0a1.28,1.28,0,0,0,.77.21l.12.34h1.11l-.13.3a.31.31,0,0,0,0,.09,2.29,2.29,0,0,1,.75.12c-.08-.08-.19-.21-.32-.37l-.78-1a74.68,74.68,0,0,1-4.27-6.35l.32-.24h0l.19.15h0l.19.2a9.63,9.63,0,0,1,.58.8.65.65,0,0,1-.05-.15l.35-.2.35.3h0l.29-.21h0a1.58,1.58,0,0,1,.25.26l.24.3A8.27,8.27,0,0,1,26.81,27l.32-.23.08.05a6,6,0,0,1-.28-.6l.35-.22h0c.2.19,1.62,2.25,2.69,3.82l1.1,1.58h0l.84,1.24,1.64,2.41a4.31,4.31,0,0,0-.51-.8L33.3,34h0a2.25,2.25,0,0,1,.59.63h0c-.56-1-1.62-2.45-2.52-3.68-.55-.75-1-1.42-1.31-1.85h0c-.08-.11-.21-.32-.37-.57h0a39.06,39.06,0,0,1-2.18-3.56l.36-.21h0a7.71,7.71,0,0,1,.53.71A10.25,10.25,0,0,1,28,24.5l.36-.22h0c.19.23.5.66.86,1.18-.14-.26-.25-.48-.33-.65l.35-.22h0a12.8,12.8,0,0,1,1.18,1.68l.22.34h0l.36.56.48.72c.82,1.23,1.91,2.81,2.5,3.54a2,2,0,0,1-.3-.62l.4-.13h0s0,0,0,.06l.09.11a29.7,29.7,0,0,0-1.76-2.56c-.6-.83-1.2-1.64-1.62-2.34h0l-.23-.37c-.36-.59-.9-1.47-1-1.83l.35-.23h0a1.72,1.72,0,0,1,.17.19c-.18-.33-.35-.65-.49-.95l.33-.26h0a18.65,18.65,0,0,1,1.91,2.74c.56.89,1.16,1.85,1.7,2.62l-.06-.1-.3-.49.31-.25a16.94,16.94,0,0,0-1-1.52,8.81,8.81,0,0,1-1.11-2l.34-.23h0a.36.36,0,0,1,.08.09A8.62,8.62,0,0,1,31,22l.32-.22v0h0l.26.26,0-.07.36-.19h0l.12.16,0-.09.35-.23a4.3,4.3,0,0,1,.38.49l0,.05.34-.24.44.46c0-.14,0-.26.37-.36l.12,0,.09.09.07.06,0-.11.1-.13.16.07a.59.59,0,0,1,.3.67l.14-.22.18.23,0,0,0-.07.08-.14.16,0,.72.19.18.05,0,.18,0,.38a1,1,0,0,1,.32-.09.57.57,0,0,1,.37.06.44.44,0,0,1,.22.35,1.67,1.67,0,0,1-.21.9h0l-2,4.19a1.31,1.31,0,0,0,.14.83,2.74,2.74,0,0,1,.15.4l.16-.25h0l.22-.38-.29-.09h0v0c0-.1.42-1.28.9-2.45a6.73,6.73,0,0,1,1.45-2.6l.08,0h.12l.23.08.21.07a13.66,13.66,0,0,1-2.12-2.54c-1.08-1.54-2.18-3.09-3.61-3.19-1.3.12-2.7,1.59-4.1,3.05C28.06,22,27.58,22.55,27.09,23Zm-6.33,5.1c.55-.45,1.15-1,1.78-1.53.79-.69,1.62-1.41,2.42-2.05l-.23.08c-.69.52-1.62,1.38-2.52,2.19ZM14,35.18Zm-.11.2a.24.24,0,0,0-.1,0h-.05c0,.06,0,.16-.07.31h0a.56.56,0,0,0,0,.24h0c0,.19,0,.19-.28.41l-.21.16-.11-.23A7.93,7.93,0,0,1,12.69,34c0-.16,0-.31,0-.44a3.36,3.36,0,0,1,0-.36h0v-.1l.09,0,5.1-3.22c.44-.32.84-.61,1.22-.91s.76-.58,1.13-.89,1.07-.95,1.67-1.5c.92-.83,1.87-1.7,2.58-2.24h0l.07,0c1.17-.37,2.42-1.67,3.67-3,1.46-1.52,2.92-3,4.38-3.18h0c1.65.12,2.8,1.75,4,3.38a8.93,8.93,0,0,0,2.67,2.88l3,1.17a6.26,6.26,0,0,1,2.63,1.24,7.47,7.47,0,0,0,1.48.9,2.56,2.56,0,0,1,.84.6l.35.32a4.3,4.3,0,0,0,1.47.8,7.61,7.61,0,0,1,1.26.59h0l3.93,2.27c.8.38.79.48.68,1.36,0,.1,0,.2,0,.27l0,.28-.25-.1.06,0h0l.13.14h0a.63.63,0,0,1,.1.35v0l0,.34-.3-.1a.8.8,0,0,1,.13.28l.09.32-.27-.05a1.15,1.15,0,0,1,.13.51l0,.45-.06,0v.11h0c0,.59,0,.94-.74,1a6.62,6.62,0,0,1-1.23,0l-.3,0h0l-.73,0h0c-.49,0-1,0-1.46-.11a5.59,5.59,0,0,1-.66-.12c-.26-.07-.36-.13-.36-.24a.53.53,0,0,1-.09-.11l-.07-.1a2.82,2.82,0,0,0-.67-1l0,0h0l-1.06-1.17a1.78,1.78,0,0,1,.05.28l0,.41L47,35l-.19-.13.11.24h-.29l-.07.14-.08-.14c-.23,0-.28-.09-.43-.32a5,5,0,0,0-.41-.54h0l-.11-.13a18.19,18.19,0,0,1-1.39-2l-.24-.39h0l-.2-.33-.65-1a.77.77,0,0,1-.09-.13l-.08,0-.1-.05v-.11c0-.21-.05-.32-.07-.41h0c0-.17,0-.24,0-.29a.26.26,0,0,1,0-.14h0a3.25,3.25,0,0,0,.21-1,1.46,1.46,0,0,1,.14-.52h0a2,2,0,0,0,.15-.39c0-.1.06-.21.09-.31h0l.09-.32-.21-.09a8,8,0,0,0-1-.41h0l-.26-.06h0a3.94,3.94,0,0,1-.6-.17h0a1.75,1.75,0,0,1-.4-.24,1.14,1.14,0,0,0-.23-.16c-.14-.08-1.4-.54-2.2-.83L38,24.55l-.16-.05a9,9,0,0,0-1.19,2.35l-.08.2a.08.08,0,0,1,0,0h0l0,0h0l.06-.06.35.2a13,13,0,0,1-1.28,2.76h0c-.1.17-.2.32-.28.43a1.46,1.46,0,0,1-.26.28h0l-.21.17L35,30.5c-.13-.28-.11-.36-.06-.44a1.59,1.59,0,0,0-.14-.4c0-.09-.08-.18-.11-.27l-.24.16A5.48,5.48,0,0,1,35,30.74h0l-.33.2a5,5,0,0,1,.37.85h0l.14.47-.43-.21h0c.07.16.14.34.21.55l-.31.25a1.34,1.34,0,0,1-.23-.16,9.12,9.12,0,0,1,.72,1.21h0l-.31.27-.16-.12a5,5,0,0,1,.37.81l-.31.25a1.61,1.61,0,0,1-.27-.29,2.1,2.1,0,0,1,.24.67h0v0l0,.39-.35-.18-.09,0c.09.18.17.36.24.52l.18.4a2.18,2.18,0,0,1,.09.29h0l.09.46-.41-.24A10,10,0,0,1,33.66,36a.27.27,0,0,1-.06.14.18.18,0,0,1-.12.09h0l-.14.07-.25.14L33,36.16a13.58,13.58,0,0,0-1.3-2.08h0l-.15-.21h0l-1.92-2.73a.78.78,0,0,1-.2.38c.28.35.33.52,0,.91l0,0c.07.09.13.19.21.31a1.32,1.32,0,0,0,.12.16,1.72,1.72,0,0,1,.32.65l.07.3-.31,0h0c.2.27.37.5.51.67a3.93,3.93,0,0,0,.35.41h0l.17.09-.08.18s0,0,0,0h0a.17.17,0,0,1,0,.2h0c-.05.07-.09.09-.21.13h0l-.06,0h-.15a1.83,1.83,0,0,0-.85-.14H29a.23.23,0,0,1-.26-.07.34.34,0,0,1-.05-.11h0l0-.21h-.62l-.14-.38,0,0a1.41,1.41,0,0,1-.49-.21h0c-.17-.11-.31-.19-.94,0l-.14,0-.09-.12,0,0h0a.18.18,0,0,1-.05-.22h0L26,34h0l-.34-.11h0a.82.82,0,0,0-.54-.08l-.29,0h-.11l-.07-.08-.15-.2c-.06.19-.28.32-.73.42a2.75,2.75,0,0,0-.83.28,3.29,3.29,0,0,1-.54.24l-.39.13.12-.4a.61.61,0,0,1,.05-.12l-.37.18-.43.22.13-.46.05-.17s0,0,0-.07l-.37.17h0l-.23-.34a4.65,4.65,0,0,1,.61-.56l-.19-.32a1.89,1.89,0,0,1,.43-.38,5,5,0,0,1,.47-.24l0-.09-.41.26a5.85,5.85,0,0,1-1.11.63h0l-.16-.39a.82.82,0,0,0,.26-.2h0a3.92,3.92,0,0,1,1.29-.83c.63-.27.6-.38.54-.62a2.52,2.52,0,0,1-.1-.77c0-.12,0-.23,0-.34a3.5,3.5,0,0,1,.34-1.8.87.87,0,0,1,.54-.48h0a1.24,1.24,0,0,0,.29-.16,2.89,2.89,0,0,0,.24-.25,1.66,1.66,0,0,1,.41-.38,1.21,1.21,0,0,1,.48-.19c.09,0,.17,0,.39-.24l.21-.22h0a2.55,2.55,0,0,1,.44-.41h0c.57-.41.61-.48.79-.77.08-.13.18-.3.36-.56a2.6,2.6,0,0,1,.79-.74,3.06,3.06,0,0,0,.6-.5c.18-.2.34-.35.47-.47h-.1c-.1,0-.19,0-.73.38-.31.22-.41.23-.52.24a.65.65,0,0,0-.27.11,21.5,21.5,0,0,0-2.73,2l.26.24a19.64,19.64,0,0,1-2.37,2.2l.25.23a4,4,0,0,1-.89,1l.09-.06.1-.06h0l.2-.09.08,0,.26.29c-.4.81-5.74,4.38-7.73,5.71l-.56.37h0c0,.12,0,.17-.13.22a.18.18,0,0,1-.21,0ZM13.75,35h.08v0l.08,0h0l.64-.42,1.36-.91c-.33.19-.62.36-.88.48l-.23-.31,0,0h0a8.59,8.59,0,0,1,1.26-.93l.22-.14-.08,0L16,32.28l1.45-1.1-.21-.37.55-.37h0l.06,0c.33-.25.75-.57,1.14-.89l-.83.62h0l-5,3.16c0,.07,0,.14,0,.22s0,.27,0,.43a13.33,13.33,0,0,0,.16,1.6,2.36,2.36,0,0,1,.14-.46h0a.22.22,0,0,1,.27-.13h.06Z"/><path class="cls-6" d="M35.57,38.55v-.07h0a.19.19,0,0,0-.12.07h.12ZM33.72,23l.11-.28-.17.09Zm-.23.65.09-.27-.14-.07-.11-.06A3,3,0,0,1,33.49,23.62Zm.06,1.1.07-.18-.14,0C33.5,24.58,33.53,24.65,33.55,24.72Zm-.12.57a1.88,1.88,0,0,1,0-.33l-.17.11C33.35,25.15,33.4,25.22,33.43,25.29Zm.63-.44q0-.24.09-.45A1.75,1.75,0,0,0,34,25.88a5.89,5.89,0,0,0,.35-1Zm.5,4.12a1.33,1.33,0,0,1,0-.43l0-.05,2-4.2a1.39,1.39,0,0,0,.17-.65s0-.05,0-.05-.05,0-.1,0h0a1.14,1.14,0,0,0-.49.22l-.4.31,0-.5.07-.61-.39-.1-.33.6-.32-.11c-.06.13-.11.26-.16.4h0l0,.12.08.17h0a.67.67,0,0,1,.05.3,1.63,1.63,0,0,1-.05.35A4.38,4.38,0,0,1,34,26.49l-.22.17-.11-.25v0l-.13.05A6.43,6.43,0,0,1,34.3,28l-.18.09C34.28,28.39,34.44,28.69,34.56,29Zm8.92,6.13a3.94,3.94,0,0,0,.37.49C43.74,35.44,43.62,35.27,43.48,35.1Zm-1.71-.43v.09h0L42,35C41.93,34.92,41.85,34.8,41.77,34.67ZM41,32.84l0,0A.81.81,0,0,1,41,33Zm-1.42,5.9-.07.07a.43.43,0,0,1,0,.07l0-.09Zm.09-.53,0,0,0,.06Zm-2.12.17a1.55,1.55,0,0,1-.29.09h0c-.11,0-.19.05-.31.27l0,.08a2.73,2.73,0,0,0,.14.52,1,1,0,0,0,.11.21l.09-.26C37.43,39,37.51,38.69,37.58,38.38ZM37,38l-.17,0s0,0,0,.07Zm.54-.58a1.06,1.06,0,0,1-.21.11l.16,0ZM36,38l0-.13c0-.27.07-.56.09-.84l0-.27.26.09a.51.51,0,0,1,.31.24h0a2.55,2.55,0,0,1,.78-.72l.29.29-.15.27a7.83,7.83,0,0,0,.61-.7h0l.23-.29.35.24-.66,1.17H39.2l.2,0a1.31,1.31,0,0,1,.4,0c0-.21,0-.4,0-.58a1.29,1.29,0,0,0-.16.18s0,.08-.07.13l-.39-.14a.47.47,0,0,1,.06-.15,4,4,0,0,1,.24-.37,2.69,2.69,0,0,0,.19-.32l-.14.2a3.66,3.66,0,0,1-.49.6l-.32-.27c.12-.21.24-.4.37-.6s.27-.41.39-.64.24-.39.32-.51l0-.08a1.33,1.33,0,0,1-.14.19,4.62,4.62,0,0,1-.34.41l-.36-.2h0a1.64,1.64,0,0,1,.15-.32c.07-.14.16-.31.27-.49a26.24,26.24,0,0,1,1.84-2.8h0l.18-.19.36.2h0l-.08.2h0l-.11.22a5.47,5.47,0,0,1-.49.76l.18.07c.33.12.48.43.62.79h.41s0,0,0-.08h0c-.55-1-.28-1.2.06-1.49a1.13,1.13,0,0,0,.27-.3.36.36,0,0,0,0-.37h0a1.16,1.16,0,0,1-.1-.41h0a1,1,0,0,1,.14-.65.37.37,0,0,0,0-.24c0-.22,0-.32-.06-.4s0-.23,0-.29h0a.26.26,0,0,1,0-.14h0a3.25,3.25,0,0,0,.21-1,1.46,1.46,0,0,1,.14-.52h0a2,2,0,0,0,.15-.39c0-.1.06-.21.09-.31h0l.09-.32-.21-.09a8,8,0,0,0-1-.41h0l-.26-.06h0a3.94,3.94,0,0,1-.6-.17h0a1.75,1.75,0,0,1-.4-.24,1.14,1.14,0,0,0-.23-.16h0l-.26-.11-.44-.17-2-.75a8.77,8.77,0,0,0-1.2,2.36l-.08.2,0-.05,0,0h0l.06-.06.35.2h0a3.46,3.46,0,0,1-.14.43c-.06.16-.13.35-.21.53a10,10,0,0,1-1.47,2.5l-.21.16L35,30.5c-.13-.28-.11-.36-.06-.44a1.59,1.59,0,0,0-.14-.4,2.33,2.33,0,0,1-.11-.28l-.25.16A4.85,4.85,0,0,1,35,30.75l-.33.19a4,4,0,0,1,.37.86l.15.48-.44-.23h0c.07.16.14.34.21.55l-.31.25a1.34,1.34,0,0,1-.23-.16,11.68,11.68,0,0,1,.73,1.21l-.31.27h0l-.16-.12a5,5,0,0,1,.37.81l-.32.24h0a1.24,1.24,0,0,1-.25-.26,2.31,2.31,0,0,1,.23.67l0,.38-.35-.17h0l-.09-.05a7.88,7.88,0,0,1,.51,1.23l-.33.21h0c-.22-.16-1.86-2.6-2.93-4.17l0,0-.32.19a8.3,8.3,0,0,0-.74-1.24h0a2.83,2.83,0,0,1-.48-.69c-.23-.38-.6-.92-1-1.51a22.23,22.23,0,0,1-2.07-3.38h0l.35-.22c.19.18,1.61,2.25,2.69,3.82.47.67.87,1.26,1.1,1.58h0l.85,1.25,1.62,2.39a2.12,2.12,0,0,0-.11-.21l-.22-.37-.16-.2h0L33.3,34a2.12,2.12,0,0,1,.59.63h0c-.57-1-1.63-2.45-2.53-3.68-.54-.74-1-1.41-1.3-1.84h0l-.37-.58a40.55,40.55,0,0,1-2.18-3.55h0l.36-.21a7.71,7.71,0,0,1,.53.71,2.12,2.12,0,0,1-.11-.21l-.2-.4c-.06-.13-.11-.23-.14-.32h0l.36-.21c.19.23.5.66.86,1.17l-.07-.12c-.1-.19-.19-.37-.26-.52h0l.36-.23a13.63,13.63,0,0,1,1.18,1.69l.22.34h0c.5.79,1.67,2.54,2.58,3.8l.49.67.27.35a2,2,0,0,1-.3-.62l.4-.12a1.27,1.27,0,0,0,.14.18c-.45-.78-1.12-1.69-1.77-2.58s-1.2-1.64-1.62-2.34h0l-.23-.38c-.36-.59-.9-1.47-1-1.83h0l.35-.23.17.19c-.18-.32-.34-.64-.48-.95h0l.33-.26a18.08,18.08,0,0,1,1.91,2.74c.56.89,1.16,1.85,1.7,2.62l-.06-.1c-.11-.18-.21-.34-.29-.49h0l.3-.26c-.28-.51-.62-1-1-1.51a8.6,8.6,0,0,1-1.11-2h0l.35-.22.08.09A8.22,8.22,0,0,1,31,22h0l.33-.24a2.29,2.29,0,0,1,.27.27l0-.06h0l.36-.2.12.16,0-.09h0l.35-.23a4.3,4.3,0,0,1,.38.49l0,.05.34-.24.44.46c0-.14,0-.26.37-.36l.12,0,.09.09.07.06a.51.51,0,0,1,0-.1h0l.09-.14.17.07c.27.11.33.37.3.67l.14-.22.18.23,0,0,0-.07.08-.14.16,0,.72.19.18.05,0,.18,0,.38a1,1,0,0,1,.32-.09h0a.57.57,0,0,1,.37.06.44.44,0,0,1,.22.35,1.67,1.67,0,0,1-.21.9h0l-2,4.19a1.31,1.31,0,0,0,.14.83,2.48,2.48,0,0,1,.15.41c.11-.17.25-.4.38-.64l-.29-.09h0v0c0-.1.42-1.28.9-2.45a6.73,6.73,0,0,1,1.45-2.6l.08,0h.07c.06,0,1.33.46,2.18.78l.46.18.28.11h0l0,0h0a2.17,2.17,0,0,1,.3.21,1.46,1.46,0,0,0,.29.18h0a4,4,0,0,0,.53.14l.28.07h0a7.85,7.85,0,0,1,1.11.43l.36.16h0l.15.06,0,.17a5.11,5.11,0,0,1-.13.53h0c0,.09-.06.18-.09.3a3.47,3.47,0,0,1-.17.47h0a1,1,0,0,0-.11.39,3.61,3.61,0,0,1-.25,1.15s0,.08,0,.18.05.27.07.41v0a.76.76,0,0,1-.11.48.57.57,0,0,0-.08.41.73.73,0,0,0,.07.29h0a.68.68,0,0,1-.06.72,1.19,1.19,0,0,1-.37.42c-.19.17-.34.3,0,1h0a14.25,14.25,0,0,0,.85,1.16,9.65,9.65,0,0,1,1.11,1.63h0l0,.21-.21,0a.82.82,0,0,1-.59-.16l-.21.24-.1-.05h0l-.22-.11a.76.76,0,0,1,0,.11h0l.1.41-.39-.16a3.68,3.68,0,0,1-.88-.74l0,0-.06-.06A7.56,7.56,0,0,1,41.4,35h0a.4.4,0,0,1-.06-.24h0a1.91,1.91,0,0,0-.26-.8l-.18-.34-.09-.18-.12-.2-.05-.07c-.22.33-.44.69-.63,1,.51.32.5.34.15.89-.05.06-.09.14-.15.23l.18-.06v.28a1.68,1.68,0,0,1-.06.53l.05,0,0,.3a10.34,10.34,0,0,1-.2,2.58c0,.17-.08.32-.12.46a1.88,1.88,0,0,1-.15.38h0l-.14.27-.21-.22a.7.7,0,0,1-.16-.63.4.4,0,0,0-.09-.15l-.07-.09h0l0,0c-.39.17-.58.26-.89,0L38,38.75l.11-.16a1.4,1.4,0,0,1,1-.59c.23-.06.45-.11.55-.32H39l-.57,0h-.31a13.08,13.08,0,0,1-.38,1.71c0,.12-.09.23-.13.33a.89.89,0,0,1-.16.26h0l-.1.12-.15-.07h0a1.05,1.05,0,0,1-.44-.56,3.33,3.33,0,0,1-.17-.6c0-.11,0-.2,0-.2l0-.09,0-.07-.06-.12a.93.93,0,0,1-.09-.75v-.05l0-.17,0,0c0,.16,0,.3-.05.45s-.08.55-.13.78l-.24,0a.41.41,0,0,1,0,.2h0a.16.16,0,0,1,0,.06c0,.15,0,.31,0,.47a3,3,0,0,1-.1,1.25.28.28,0,0,1-.18.13.26.26,0,0,1-.2,0h0c-.16,0-.33-.23-.52-.45s-.4-.49-.41-.49l-.13.09-.12-.1c-.32-.25-.32-.27-.32-.56a2.21,2.21,0,0,0,0-.32v-.14l.12-.07.47-.28.22.37-.36.21v.22a.23.23,0,0,0,.08.18c.27,0,.55.32.81.61l.14.17,0-.07.09.07c0-.19,0-.5,0-.83v-.16l0,.07L35.15,39l.08-.1-.13,0-.24,0,.08-.23c.17-.48.33-.52.53-.56A.51.51,0,0,0,35.7,38a.26.26,0,0,1,.2-.14Z"/><path class="cls-7" d="M40.4,37.72a2.92,2.92,0,0,1,1,.19c-.26.27-.54.21-.9.43.09.13-.12.35.79.16-.33.44-.83.39-.23,1.13.44-.2.42-.92.64-1.87.26.05.26.25.88.34l-.18.11c-.54.33-.34.07-.47.53l.6-.05c-.32.35-.59.37-.11.77.38-.66.14-.51.41-1.16a.36.36,0,0,1,0-.09c.38.09.08,0,.28.07.38.17.12,0,.3.19l-.46.07.08.82c.37-.08.11.11.33-.41l.25-.71c.19.2.16.24.45.38-.11.28-.08,0-.26.42.2.29.14.38.37.55a16.66,16.66,0,0,1,.4-1.62s.06,0,.07,0,0,0,.06,0c.34.09.33.07.9-.26a6.54,6.54,0,0,0,1.1-.66,21.59,21.59,0,0,0-2.83,1c.38-.5,1.39-.73,1.91-1.1l.14-.12a14,14,0,0,0-2.08.69l-.31.11c-.33.11.19,0-.31.09.58-.35,1.34-.78,2-1.14a26.9,26.9,0,0,0-2.71.89l1.67-1a6.52,6.52,0,0,0-1.85.58c-.55.21-1.33-.1-2,.6"/><path class="cls-6" d="M44.1,39h0L44,39l0,0Zm-.48-1,.14.15.12.14a.62.62,0,0,0,.27.2l.05,0c0-.1,0-.21.08-.3l-.33.14L43.7,38h0l.08-.09Zm-.41.78h0v.07ZM42,37.41a5.48,5.48,0,0,1,.53.28l-.12-.37h0A2,2,0,0,1,42,37.41Zm1.08.63a.31.31,0,0,1,.2.1l.06,0h0l.07-.21h-.24l0,0c-.23,0-.47-.13-.1-.31v0h0l.09-.06a3.17,3.17,0,0,1-.59.19Zm-1.31.25a.44.44,0,0,1,.15-.1m0,0,0,0m.53.19-.06,0h0l-.17.09h.18v0S42.51,38.41,42.53,38.36ZM42,38.17a1.09,1.09,0,0,1-.19-.1m0,0c0,.11,0,.23-.06.33m-.51.43-.14.11c-.11.09-.19.16,0,.39A1.51,1.51,0,0,0,41.24,38.83Zm.11-.64a.72.72,0,0,1-.23.12l.08,0,.11.16h0C41.32,38.36,41.34,38.28,41.35,38.19Zm-.4-.62h0a1.48,1.48,0,0,1,.49.15h0l0-.2h.07l-.1-.08A1.66,1.66,0,0,0,41,37.57Zm-.17.41-.41,0-.4-.06.27-.3A1.89,1.89,0,0,1,41.73,37a2,2,0,0,0,.57-.08c.13,0,.27-.11.43-.17a4.66,4.66,0,0,1,1.45-.43h0l.1.33a3.75,3.75,0,0,1,.87-.24h.09l.09.39a3.28,3.28,0,0,1,.52-.13h0l.17.37,0,0,.25-.07.37-.1h0l.19.36a4.77,4.77,0,0,1-.91.58l-.22.12h0l-.13.07c-.49.28-.54.31-.88.22a6.75,6.75,0,0,0-.18.77c-.05.23-.09.46-.15.65h0l-.09.31-.24-.2a.79.79,0,0,1-.28-.36h0a1.75,1.75,0,0,0-.14-.24l-.06-.1,0-.11a2.41,2.41,0,0,1,.14-.26l-.06,0h0l-.13.37h0a2,2,0,0,0-.09.29h0a.19.19,0,0,1-.05.14c-.06.08-.1.08-.19.09h0l-.14,0-.23,0,0-.24,0-.3a1.76,1.76,0,0,1-.23.48l-.12.22-.2-.16c-.36-.3-.41-.48-.29-.67H41.9l-.26,0c-.09.41-.21.71-.53.85l-.15.07-.1-.13c-.45-.55-.42-.77-.22-1-.3,0-.33-.17-.36-.32h0l-.14-.19.2-.12A1.65,1.65,0,0,1,40.78,38Z"/><path class="cls-7" d="M46.59,34.92c.18.08.2.16.37.34a5,5,0,0,0,.4.39,3.22,3.22,0,0,0,.92.69,2.76,2.76,0,0,1-.48-.76c.57.28.62.57,1.43,1a2.91,2.91,0,0,0-.75-1.07l-1.29-1.41c-.18-.2-.27-.24-.47-.44a24.43,24.43,0,0,1-3.28-5.53A20,20,0,0,0,46,33.29c.4.54,1,.72,1.1,1.53-.6-.33-1.17-1.44-1.6-1.94-1.52-1.77-1.26-2.19-2.19-3.53A6.9,6.9,0,0,0,44,30.94l.76,1.38c.77,1.37.71.69,1.68,2.26l.14.25S46.58,34.89,46.59,34.92Z"/><path class="cls-8" d="M46.59,34.92c.18.08.2.16.37.34a5,5,0,0,0,.4.39,3.22,3.22,0,0,0,.92.69,2.76,2.76,0,0,1-.48-.76c.57.28.62.57,1.43,1a2.91,2.91,0,0,0-.75-1.07l-1.29-1.41c-.18-.2-.27-.24-.47-.44a24.43,24.43,0,0,1-3.28-5.53A20,20,0,0,0,46,33.29c.4.54,1,.72,1.1,1.53-.6-.33-1.17-1.44-1.6-1.94-1.52-1.77-1.26-2.19-2.19-3.53A6.9,6.9,0,0,0,44,30.94l.76,1.38c.77,1.37.71.69,1.68,2.26l.14.25S46.58,34.89,46.59,34.92Z"/><path class="cls-7" d="M44.79,38.38l.26.94a2.53,2.53,0,0,0,.15,1c.39-.17.33-.48.66-1.64.27-.08.2,0,.59-.12l-.39.35.27,1.5c.36-.28.29-1.72.62-2.61.17-.46.11-.17.58-.45a8.53,8.53,0,0,0-2.74,1"/><path class="cls-6" d="M46.51,38.81l-.22.2.11.62c0-.15.05-.31.07-.47s0-.23,0-.35m-1.67.54-.25-.92,0-.15.13-.08a10.2,10.2,0,0,1,2-.87h0l.42-.11.38-.06h0l.12.4a1.31,1.31,0,0,1-.43.17h0l-.06.16a6.57,6.57,0,0,0-.26,1.32,2.36,2.36,0,0,1-.42,1.38h0l-.28.23-.07-.35-.2-1.14-.05.21h0c-.15.61-.2.83-.58,1l-.17.07-.1-.16a2.39,2.39,0,0,1-.18-1Zm.2-.87.22.78v.18a3.14,3.14,0,0,0,0,.52,3.23,3.23,0,0,0,.15-.52c0-.21.11-.47.21-.8l0-.11.11,0a1,1,0,0,1,.28,0,.82.82,0,0,0,.31-.07l.15.27a4.83,4.83,0,0,1,.21-.89A11.59,11.59,0,0,0,45,38.48Z"/><path class="cls-7" d="M47.35,38.36c-.06.5-.11.38,0,.77a5.2,5.2,0,0,0,.49,1.68c.15.27.23.49.42.51.16-.74.19-1.35.38-2.06-.3-.16-.31,0-.57-.06.12-.09.33-.2.48-.29l.07,0,.12-.1c.58-.49.58-.24,1.28-.69l.08,0-2.16.6c.21-.47.82-.48,1.27-.8-.71,0-1.24.43-1.87.54"/><path class="cls-9" d="M47.1,38.62l0-.28,0-.16.15,0a3.15,3.15,0,0,0,.69-.24,2.64,2.64,0,0,1,1.24-.3l.1.39,0,0,.73-.21.19.37-.09.06h0a2.74,2.74,0,0,1-.7.34,1.44,1.44,0,0,0-.56.33h0l-.13.1h0l0,0,0,0,.14.08,0,.16a9.61,9.61,0,0,0-.22,1.12c0,.3-.1.61-.16.92l0,.18h-.18c-.28,0-.39-.22-.52-.49h0l-.06-.11h0v0h0a2.72,2.72,0,0,1-.37-1.09,5,5,0,0,0-.14-.63.91.91,0,0,1,0-.57m.44-.08,0,.15c0,.13,0,.14,0,.39a5.75,5.75,0,0,1,.15.67,2.31,2.31,0,0,0,.33,1h0v0h0l.06.11h0l0,0c0-.18,0-.35.08-.51.05-.33.1-.65.18-1h-.06a.71.71,0,0,1-.3,0L48,39h0l.26-.16h0l.22-.13h0l0,0h0l0,0h0l-.51.14-.43.13.18-.42,0-.07Z"/><path class="cls-7" d="M50.43,39.9a2.62,2.62,0,0,0,.59-.24c-.27.49-.94.52-.36,1.6.25.47,0,.08.24.32.13-.5.11-2.81,1.13-2.2l-.21.19-.08,0c-.23.14-.11,0-.39.21l.16,1.26c.13.39-.08.16.27.34.18-.39,0-.34.26-1.28.12-.46.28-1,.36-1.29a4.33,4.33,0,0,0-1.18.34c-.58.23-.83.09-.79.7"/><path class="cls-6" d="M51.93,39.75l-.06,0h0a.76.76,0,0,1-.23.1l-.05,0,.11.91a4.94,4.94,0,0,1,.15-.74h0l.09-.34m.11-.61.05,0,0,0Zm-1.57,2.22c-.34-.64-.31-1-.15-1.22l-.09,0v-.26c0-.62.14-.68.57-.79l.35-.12a5.91,5.91,0,0,1,.6-.22h0a4.89,4.89,0,0,1,.63-.13l.32,0-.08.31q-.06.24-.15.51c-.06.24-.14.52-.21.78h0a4.3,4.3,0,0,0-.15.82,1.06,1.06,0,0,1-.13.5l-.09.21-.2-.11a.37.37,0,0,0-.15-.06.26.26,0,0,1-.13-.08.17.17,0,0,1,0-.14h0l0-.17,0,0,0-.45c0,.15,0,.29-.05.43s0,.38-.07.5h0v0l0,.1c.41,1.17.38,1.64.2,1.59,0,.09,0,.09-.06,0a3,3,0,0,1-.65-1.74Zm.43-1.23h0c-.19.18-.36.34-.12.87C50.8,40.74,50.84,40.43,50.9,40.13ZM51,39.5l.09.1.07-.15Z"/><path class="cls-7" d="M26.79,37.29l-.7-.18c.1.15.44.29.7.6-.77-.22-.85-.65-.69.32.07.42-.09.94.58,1.38.48-.73.34-1.31.43-2.29a14.71,14.71,0,0,0,1.73-.87c-.41.26-1.7.2-1.95.75l-.07.21,0,.08"/><path class="cls-6" d="M26.86,37.72l-.12.19h0a2.32,2.32,0,0,1-.55-.23c-.06,0,0,0-.06,0s.15.08.2.36h0a1.56,1.56,0,0,1,0,.31,1.1,1.1,0,0,0,.29.79,3,3,0,0,0,.24-1.3Zm-.72-.82.51.14,0-.1v0c.2-.44.82-.56,1.36-.66a2.23,2.23,0,0,0,.67-.18h0l.26.33a4,4,0,0,1-1.06.57h0a5.82,5.82,0,0,0-.61.28c0,.21,0,.4,0,.57a2.87,2.87,0,0,1-.42,1.71l-.12.18-.18-.12a1.37,1.37,0,0,1-.65-1.27,1.81,1.81,0,0,0,0-.25h0c-.08-.5-.11-.72,0-.81h0Z"/><path class="cls-7" d="M24.69,36.4h.67c-.07.67,0,.41-.68.28a2.6,2.6,0,0,1,.56.59c-.34-.18-.61-.28-.89-.45-.08.48,0,.48.39.66-.38.28,0,.93.15,1.54l.1-.12c.34-.41.18-.14.29-.75l0-.2a.36.36,0,0,0,0-.1c.3-2-.14-1.66,1.44-2.36l.22-.1c.42-.11,0,0,.15,0a3.22,3.22,0,0,0-2.46,1"/><path class="cls-6" d="M27.15,35.38Zm.05-.05h0v0l.08,0A.56.56,0,0,1,27.2,35.33Zm0,.15,0,0a.56.56,0,0,1,.05-.08l0,0-.08,0v0Zm0,0,0,0,0-.07Zm0-.11h0v0ZM25,38.5a3.57,3.57,0,0,1,.05-.38h0l0-.19a.13.13,0,0,0,0-.05h0v0c0-.15,0-.28.06-.4m.22,1.27L25,38.55m.17-1.12,0,0h0l-.27.2c-.15.11,0,.45.08.82l0,.11,0,0v0l.43,0a.47.47,0,0,1,0,.17.5.5,0,0,1-.13.19l-.13.15-.1.12-.27.34-.1-.42c0-.16-.09-.32-.14-.47a1.56,1.56,0,0,1-.13-1c-.27-.15-.35-.28-.27-.76l.05-.3.13.07.19-.29a3.36,3.36,0,0,1,1.9-1l.4-.06H27l.08,0h0a.23.23,0,0,1,.3.15c0,.08,0,.21-.26.29v0h-.07l-.16.07h0l-.22.1c-.54.24-.77.34-.86.48a1.93,1.93,0,0,0-.11.64h0c0,.25-.06.57-.12,1,0,0,0,0,0,.06h0v0h0l0,.2h0a2.09,2.09,0,0,0,0,.33m-.85-1.8.06-.12h-.29l.08,0Zm.6-.08s0,0,0,0S25.16,36.67,25.2,36.65Zm0-.45h.15a1,1,0,0,1,.07-.15Z"/><path class="cls-7" d="M25.28,48l.44.87c.42,0,.89.21,1.09.23,1.12.06-.15.07.93-.39-.36-.14-.51,0-.85-.23l.55-.18c-.44-.19-.66,0-1.1-.28-.6-.32-.51-.26-1.06,0"/><path class="cls-6" d="M25.53,49l-.44-.88-.1-.2.2-.09.2-.09c.44-.2.44-.2,1.05.13a1.12,1.12,0,0,0,.49.13,1.47,1.47,0,0,1,.59.14v.32a1.09,1.09,0,0,1,.31.08v.39a.52.52,0,0,1-.37.06l0,0c.23.24.28.34-.18.35l-.51,0a2.14,2.14,0,0,1-.4-.09,4.53,4.53,0,0,0-.66-.13h0l-.12,0Zm0-.87.29.58a5.38,5.38,0,0,1,.63.13,1.77,1.77,0,0,0,.33.07l.27,0,.07-.09a1.1,1.1,0,0,1-.38-.15l-.39-.23.22-.08a1.28,1.28,0,0,1-.38-.14c-.41-.23-.42-.23-.66-.11Z"/><path class="cls-6" d="M28.27,38l-.25.26h0l-.15-.08-.09-.06-.11-.06,0,.08h0a3.42,3.42,0,0,0,.28,1l.06.06h0A4.76,4.76,0,0,0,28.27,38m0-.07Zm-.6-.57.48.11a1.71,1.71,0,0,1,1.1-.63l.22,0a1.53,1.53,0,0,1,.4,0h0l.05.41a1.84,1.84,0,0,0-.42.2l-.26.14a1,1,0,0,1-.32.12h0l-.08,0h0l-.14,0,0,.16a5.82,5.82,0,0,1-.36,1.68l-.08.19-.19-.07-.06,0h0a.37.37,0,0,1-.14-.07h0a1,1,0,0,1-.16-.15l-.06-.06a3.63,3.63,0,0,1-.39-1.16c0-.08,0-.17-.05-.26s0-.15,0-.21h0l-.05-.33.33.1.1,0Z"/><path class="cls-7" d="M49.18,39.81l.75-.3c-.22.66-.52,0-.73.88.2.13,0,0,.27.11s0,0,.22,0c-.23.35-.67.43-.08,1A2.3,2.3,0,0,0,50,40.4a5.1,5.1,0,0,1,.28-1.2l1.23-.46c.21-.11.17,0,.23-.21-.69.25-1.07.28-2.11.72C49.22,39.41,49.17,39.37,49.18,39.81Z"/><path class="cls-8" d="M49.18,39.81l.75-.3c-.22.66-.52,0-.73.88.2.13,0,0,.27.11s0,0,.22,0c-.23.35-.67.43-.08,1A2.3,2.3,0,0,0,50,40.4a5.1,5.1,0,0,1,.28-1.2l1.23-.46c.21-.11.17,0,.23-.21-.69.25-1.07.28-2.11.72C49.22,39.41,49.17,39.37,49.18,39.81Z"/><path class="cls-7" d="M18.34,36.66c-.53-.12-.75-.49-1.12-.33.44.4.43.15.71.61l-.85-.25c0,.43,0,.32.31.55-.28.43-.19.5.1.73.19-.36.16-.34.05-.62.48.12.4.12.61.53.2-.28.12-.3.25-.77s.18-.66.24-.89l-.6-.1c.28.47.21-.1.3.54"/><path class="cls-6" d="M17.13,36.14a.71.71,0,0,1,.72.08l-.23-.39.45.08.6.1.22,0-.05.22c0,.13-.06.27-.1.4s-.08.3-.14.5a2.93,2.93,0,0,0-.07.34.86.86,0,0,1-.21.49l-.2.28L18,38l-.08-.16a.36.36,0,0,0-.05-.09,1.8,1.8,0,0,1-.16.35l-.12.23-.2-.16h0c-.35-.28-.49-.39-.24-.84-.19-.14-.21-.16-.24-.59l0-.3.19.05-.2-.17Zm1.12.72-.16,0,0,0-.24.31L17.46,37l.06,0,.09.08c.31.08.43.11.51.22,0-.08,0-.18.07-.32Z"/><path class="cls-7" d="M39.86,50.56a3.79,3.79,0,0,0,2.14,0l-.5-.14c.29-.19.1,0,.23-.29-.5-.2,0,0-.48-.35-.7.08-1.18.19-1.39.81"/><path class="cls-6" d="M41.6,49.82h0m-1.45.61h.09l.3,0a4.34,4.34,0,0,0,.51,0h0l.38-.26h0a.1.1,0,0,1,0,0,.18.18,0,0,1-.08-.11h0L41.19,50a2.62,2.62,0,0,0-.73.17A.78.78,0,0,0,40.15,50.43Zm-.26.37-.11,0-.19-.07.07-.19a1.14,1.14,0,0,1,.62-.74,2.83,2.83,0,0,1,.95-.22l.15,0a1.17,1.17,0,0,1,.26.26l.14,0,0,0L42,50l-.08.2a.25.25,0,0,0,0,.09l.17,0,0,.39a3.53,3.53,0,0,1-1.59.19l-.33,0Z"/><path class="cls-7" d="M16.28,36.45c.44.26.12,0,.31.42-.46-.13-.66-.34-1-.2a1.35,1.35,0,0,0,.7.43c-.7.56.54-.24-.26.12-.31.15-.1,0-.34.18.35.38,0,.67.78.71.22-.42,0-.08.12-.43l.09-.25c.17-.47,0-.57.1-1.31-.42.35.27.25-.52.33"/><path class="cls-6" d="M16.55,37.18l0,0a.56.56,0,0,1-.18.2.48.48,0,0,1-.31.09,1.11,1.11,0,0,1,.07.22c0,.08,0,.15.28.17a.57.57,0,0,1,0-.27h0l.09-.25h0a1.21,1.21,0,0,0,.05-.18m-1-.7a.75.75,0,0,1,.67,0l.06-.26.19,0a.75.75,0,0,1,.22-.27l.34.18a4.79,4.79,0,0,0,0,.64,1.65,1.65,0,0,1-.1.73h0l-.09.25h0s0,0,0,0h0c.09.09.11.12-.07.48l-.07.12h-.13c-.67,0-.72-.23-.79-.51a.61.61,0,0,0-.13-.27l-.15-.15.15-.15,0,0c.07-.07.09-.1.13-.12h0l0,0L15.63,37l-.11-.09-.08-.1h0l-.14-.21Z"/><path class="cls-6" d="M33.53,35.83Zm1.18,2.55,0-.13-.2.09Zm-.26.93a2,2,0,0,0,.14-.4l-.15.09v.22A.34.34,0,0,1,34.45,39.31Zm.44-1.7.13.1.11,0,.33-.1Zm.9,1.52a.86.86,0,0,1,0-.15,1.43,1.43,0,0,0-.23.2.63.63,0,0,0,.09.2l0,0C35.77,39.35,35.78,39.27,35.79,39.13Zm.07-.56c0-.08,0-.16,0-.24a.75.75,0,0,1-.34.15.19.19,0,0,0-.12.07h0l.34-.07,0,.11Zm.13-.75v0l-.07.05,0,.1Zm1.35-.27.16,0,0-.09A1.06,1.06,0,0,1,37.34,37.55Zm-.49.51L37,38l-.17,0S36.85,38,36.85,38.06Zm.4,1.49a6.65,6.65,0,0,0,.33-1.18,1.11,1.11,0,0,1-.29.1h0c-.12,0-.2.05-.34.32l0,.06s.09,0,.1,0a3.14,3.14,0,0,0,.13.45A1,1,0,0,0,37.25,39.55Zm2.44-1.25v-.09l0,0Zm-.11.58a.83.83,0,0,0,0-.15l-.08.08A.43.43,0,0,1,39.58,38.88ZM42,35c-.08-.12-.17-.24-.25-.37v.07h0v0h0ZM41,33v-.11l0,0A.81.81,0,0,1,41,33Zm2.83,2.65-.38-.5A3.31,3.31,0,0,0,43.86,35.6Zm5.65,1h0S49.51,36.63,49.51,36.62Zm0,0h0Zm-1.28-.15.53.08a3.89,3.89,0,0,1-.35-.28ZM52,42.8h0Zm-1.63,2.79ZM48,46.22h1.33l.18,0h0a3.36,3.36,0,0,0-1.1,0Zm-5.3.89a.11.11,0,0,1,0,0l0-.06Zm4.72.3c.45,0,.8,0,1,0l-.16,0a2.92,2.92,0,0,0-.71.06Zm-1.4,0h.77a2.78,2.78,0,0,0-.76,0Zm-1.91,0h0Zm.63,3.21c.16,0,.28.08.4,0ZM37.52,49l-.09.09a1.34,1.34,0,0,1,1,.36l.15.17-.18.14-.22.14.1.07-.11.18-.09.13H39l.31,0h0a.67.67,0,0,1,.25,0c.13,0,.18.12.3.33h0l.06.11-.06.1,2.48,0h0l-.12-.18.17-.12h0a1.59,1.59,0,0,1,.73-.15l0,0,.06-.32a4.92,4.92,0,0,1-.67,0l0-.41c-1.09,0-2.91-.07-3.11-.14L39,49.36l.29-.23C38.62,49.12,38,49.09,37.52,49Zm-2.76-1.16a.32.32,0,0,1,.08.09L35,48h0a1.07,1.07,0,0,0,.23,0c.37,0,.8.11.83.57h.11a3.62,3.62,0,0,1,1.09.19l0-.22h0l.31-.1c-.46,0-.92,0-1.39,0l0-.41a.19.19,0,0,1,.1,0l.15,0A15.49,15.49,0,0,1,34.76,47.88Zm-1.78-1a1.27,1.27,0,0,1,.69.45l.1.1a1.72,1.72,0,0,1,.85.28l.1.08v-.38h0a60.54,60.54,0,0,1,8-.1h.36c-.29-.11-.29-.14-.31-.26h0l.09-.23c-1.58,0-2.94,0-3.45,0h0a7.91,7.91,0,0,0-1.08,0c-.42,0-.83,0-1.14,0h0a21.72,21.72,0,0,0-2.28,0C34.25,46.91,33.61,46.94,33,46.92Zm3.32-4.11h0l-.32.07,1.45-.22h-.1l-.63.07a3.45,3.45,0,0,0-.4.07Zm-9.93,2.36.23.14,0,0,.22-.13a1.29,1.29,0,0,1,.49-.16.58.58,0,0,0,.33-.12h0l.77-.38h0a.89.89,0,0,0,.44-.25c.21-.21.39-.38,1.16-.29s.7.05.86,0a2.91,2.91,0,0,1,.6-.22,3,3,0,0,1,.73-.1,2.61,2.61,0,0,0,1-.24A16.05,16.05,0,0,1,35,43c-.34,0-.64,0-.92.07a8.17,8.17,0,0,0-1.13.11h0l-3.08.54h0c-1,.12-1.13.25-1.29.36a1,1,0,0,1-.48.23,4.15,4.15,0,0,1-1.15,0,6.2,6.2,0,0,0-1.23,0h0a3.16,3.16,0,0,0-.94.34h0l-.41.19h0c.27.21.29.2.36.18l.17,0,.19,0h0a1.88,1.88,0,0,1,1.31.09Zm5.5,8.48-.18.1.08,0,.16.08Zm-.67-.9-.05.1a1.4,1.4,0,0,1,.17.22l.05.07.34.26.08.06a1.87,1.87,0,0,0-.16-.28A2.5,2.5,0,0,0,31.2,52.75Zm-3.6,0h-.37l.25,0Zm1.73,0H29l0,.06-.07.35a2.62,2.62,0,0,0,.28-.29Zm.5-.41h-.12v.07Zm.65-.18-.08.06h.15Zm-1-1.11-.08.3a1.13,1.13,0,0,1,.29.15l-.08.23a3.11,3.11,0,0,1,.47.07A4.11,4.11,0,0,1,29.5,51.1Zm-.21-.32-.08,0h0l-.09,0h0a.79.79,0,0,1,.26.08Zm-.52-.6h0s0,.09-.11.15l.32.05A1.94,1.94,0,0,0,28.77,50.18Zm-.48-.43v0h0l-.05,0h.16Zm-7-1h0Zm2-.24h0M21,48.29c-.35,0-.65,0-.83,0A4.44,4.44,0,0,0,21,48.29Zm2.43-1.15-.06.06a.88.88,0,0,1-.44.14H21.72l-.67,0c-.47,0-.93,0-1.39,0l.15,0-.19.26-.05.07c.83.11,2.5.14,3.55.16h.67l.09.32s0,0,0,0v.05l-.07,0a.3.3,0,0,1-.13.09l.23,0-.3.28s0,.07-.11.11,0,0-.08,0h0l.83,0,.66,0,.59,0a4.25,4.25,0,0,1,1,.15l-.06.29c.64,0,1.19,0,1.56,0h0c0-.18,0-.21.14-.26s-.05,0-.1-.16h0l0,0s0,0,0-.08h0a2.2,2.2,0,0,0-.31-.37A1.86,1.86,0,0,0,26.19,48,4.56,4.56,0,0,1,23.44,47.14Zm-4.56-1.5h0a3.48,3.48,0,0,0-1,0A6.11,6.11,0,0,0,18.88,45.64Zm5.66-1.23a6.76,6.76,0,0,1-1.73.21l.17.06h0l0,0h0l.06,0-.11.4H20.25l1.47.08.07.4h0a1.64,1.64,0,0,1-.46.12l.26.07-.26.26h0a.57.57,0,0,1-.24.14h0a1.37,1.37,0,0,1,.84.24l-.1.34,1.16,0h0l0-.14.2-.74,0-.13.13,0h0a4.08,4.08,0,0,1,1.11,0h0s0,0-.06,0l-.07-.14,0,0-.29-.21h0l-.2-.18h0L23.78,45l-.25-.26.35-.09A3.49,3.49,0,0,0,24.54,44.41ZM18.76,44l-.26,0a1.43,1.43,0,0,0-.62,0Zm6.91,0L25,44h-.38v.33a3.46,3.46,0,0,1,1-.37h.05Zm-8.22-.68c-.43,0-.83,0-1.13,0h1.13Zm11.65.13a22.12,22.12,0,0,1-2.55,0l.06.34h0a1.41,1.41,0,0,1-.48.12c.27,0,.55,0,.82,0a4.7,4.7,0,0,0,1,0,.84.84,0,0,0,.33-.16A1.78,1.78,0,0,1,29.1,43.45ZM18.4,42.8c-.57,0-1.16,0-1.72,0Zm14,.07h-.18l-1.31,0-1.32,0,.06.36h0l-.1,0,.22,0h0Zm-17.59-.75h0m0,0h0m-.6-2.48h0Zm0-.23Zm0,0h0l0,.23h0Zm-.39.12,0,0s0,.16,0,.16A.56.56,0,0,1,13.83,39.53Zm.29-4.13h0m.45,2a1,1,0,0,1,0-.25h0l-.11.12,0,.06ZM17,35.21h0Zm2.18.58.43.18a.29.29,0,0,1,.11-.22h0l-.07,0a.29.29,0,0,1-.24,0h0l0,0Zm.61,1.48h0l0-.3-.07,0-.12.19a1.3,1.3,0,0,0-.08.17.72.72,0,0,0,0,.31.31.31,0,0,0,.14.2h0l.08-.05h0a.66.66,0,0,1,0-.11A2.93,2.93,0,0,1,19.8,37.27ZM20,35.51a.22.22,0,0,1,0-.08l-.07,0Zm2.5.25s0,0,.06-.08l-.05,0S22.51,35.74,22.51,35.76Zm.53-.31.14-.12-.24.13h0l-.23.13h0a.4.4,0,0,0,.17,0h0A1.1,1.1,0,0,0,23,35.45Zm.28.38Zm0,0Zm0,0Zm-.87.17.12.06.23.12.09-.18-.17,0Zm-2.07,0,.26.07.2.07L20.76,36l.39-.1h0l0,0h0l.22-.1a.18.18,0,0,1-.14-.13h0c0-.06,0,.13,0,.12h-.06l-.25,0-.38,0H20.4Zm1,.88v0h0Zm-.22,1a3.11,3.11,0,0,0,.16-.64l-.1.11L21,37.16a1.23,1.23,0,0,1,.1.24h0l0,.13h0a.55.55,0,0,1,0,.18h0S21.15,37.8,21.18,37.82Zm1.3.37s0,0,0,0Zm1-.83a1.67,1.67,0,0,0,.08-.3L23.47,37,23,36.74l-.09.07c-.28.22-.35.19-.55.1l0,0a.92.92,0,0,0,0,.16,2.69,2.69,0,0,0,0,.39h0v.12h0a1.08,1.08,0,0,0,.08.42c0-.1.1-.22.35-.4l.22-.16.1.25a2.44,2.44,0,0,1,.11.3h0a.74.74,0,0,0,.16.27s0,0,0,0,0,0,0,0a.71.71,0,0,0,0-.16,1.2,1.2,0,0,0,0-.25h0a.45.45,0,0,1,0-.11h0a1.26,1.26,0,0,1,.05-.15h0S23.45,37.47,23.5,37.36Zm1.23-1.54.44-.3a1.81,1.81,0,0,0-.75.46A.9.9,0,0,0,24.73,35.82ZM29,35.63h0m.2.11h0m1.42.71-.52-.05A.59.59,0,0,0,30.61,36.46Zm0-1a1,1,0,0,1,.38.26l.25.26-.2,0,.53,0,.08.4-.15.08h0c-1.34.58-1.59.26-1.87-.09h0a.77.77,0,0,0-.41-.32h0a.64.64,0,0,1-.19-.08h0L28.78,36h0l0,0h0l-.88-.36h0l-.41-.23-.29-.17h0c-.41-.12-.95.2-1.35.44h0l-.13.08h0c-.31.18-.52.32-.68.43-.42.3-.52.37-.95.15,0,.1,0,.2,0,.3a2,2,0,0,1-.13.91l-.08.21h0l0,.07h0s0,0,0,0,0,.12,0,.31a.62.62,0,0,0,0,.13.34.34,0,0,1,0,.2c-.06.11-.13.13-.31.19h0l-.11,0-.14,0-.09-.1a1.43,1.43,0,0,1-.27-.37,2.55,2.55,0,0,1-.37.25l-.17.09-.11-.16a1.26,1.26,0,0,1-.3-.84v-.12a3.47,3.47,0,0,1,0-.44,4.4,4.4,0,0,1,.05-.45l0-.2h0v0h0a1.29,1.29,0,0,0,0,.19h0v.06h0v0a4.18,4.18,0,0,1-.43,1.53l-.06.07h-.09c-.55,0-.55-.31-.56-.56h0v-.07l0-.13a1.35,1.35,0,0,0-.08-.19,1.23,1.23,0,0,1-.11-.49l0-.31a1.26,1.26,0,0,1-.07-.25l0-.09-.14,1.13h0c0,.18,0,.31,0,.39a.76.76,0,0,1,0,.25h0c0,.1-.1.14-.22.23l-.12.09-.09.07-.11,0-.16-.08a.69.69,0,0,1-.34-.49,1,1,0,0,1,0-.5.39.39,0,0,1-.18-.05l-.13-.07,0-.14a.78.78,0,0,0,0-.13.69.69,0,0,1,.17-.4v0a1.2,1.2,0,0,1-.26-.4l.16-.16h0l-.37.11.11-.37a1.08,1.08,0,0,1,.08-.19,3.59,3.59,0,0,1-1.28.65l-.51.07.31-.4h0a4.25,4.25,0,0,1,.76-.68l-.1,0-.48.27a.69.69,0,0,0-.14.12l-.07,0a.17.17,0,0,1-.24,0l0,0v0l0,0h0l0,0,0-.27h0v-.07l.2-.11h0l.46-.34.54-.39-.61.38c-.63.38-1.26.76-1.7,1l-.22-.35h0c.12-.1.33-.25.6-.44l-.66.39h0c-.19.12-.26.19-.29.26A9.11,9.11,0,0,1,15,37.22a.62.62,0,0,0,0,.25h0a.2.2,0,0,1,0,.15h0a.38.38,0,0,1-.15.17l-.1.08-.14.12-.13-.11a1,1,0,0,1-.27-.31c-.33.29-.29,0-.19-.24v0l0,0,.08-.13.05-.07.1-.16a.84.84,0,0,1,.35-.37,1.43,1.43,0,0,0,.17-.41h0a2,2,0,0,0,0-.77l0-.15.14-.07h0A10.4,10.4,0,0,0,16,34.3l.43-.32a18.69,18.69,0,0,1-2.22,1.23.16.16,0,0,1-.12.19.18.18,0,0,1-.19,0l-.07.28a3.76,3.76,0,0,0,0,2.54,1.06,1.06,0,0,1,.65.22l.18.17-.2.15-.1.08h0l.05.1.09.19-.18.1-.12.06h0a.27.27,0,0,1,.07.08c.08.16.05.22,0,.26l0,.18h0a1.11,1.11,0,0,0,0,.17h0q0,.1.06.24a3.31,3.31,0,0,1,.1.4h0c.05.25.07.34.45.46l.29.09-.19.24,0,0a.38.38,0,0,1-.05.14H15s.08,0,.13,0l.61.15,0,.42h0c1.43.09,5.39.09,9.22.09h0c3.66,0,7.21,0,8.35.1v.35l.84-.07a11.1,11.1,0,0,0,2.15-.28h0l.43-.07.66-.07a13.17,13.17,0,0,1,3.53,0l-.07.4-.36,0c-1.63.22-6.56.9-7,1.07a2.89,2.89,0,0,1-1.15.27,3.36,3.36,0,0,0-.65.09,3.74,3.74,0,0,0-.53.19c-.25.12-.32.15-1.08.06-.58-.07-.69,0-.83.17a1.18,1.18,0,0,1-.61.36l-.73.35-.23.13h0a1.65,1.65,0,0,1,.64.12v.35a4.23,4.23,0,0,1,2.06.27l0,.21a5.17,5.17,0,0,1,.57,0,4.23,4.23,0,0,1,.52.09,2.87,2.87,0,0,0,.72.1h.12l.06.1a.79.79,0,0,1,.12.25h.39l-.07-.39h0a3.28,3.28,0,0,1,.7-.11c.3,0,.7-.05,1.15-.07,2.25-.08,5.86-.06,6.77,0,1.33,0,2.66,0,4,0l2.29,0-.2,0,0-.42h0A6.71,6.71,0,0,1,49,45.69a8.39,8.39,0,0,0,.87,0l-.08,0-.35-.19.36-.18a1.51,1.51,0,0,1,.42-.16c.12-.72.24-.81.31-.64.1-.13.16,0,.1.63.07,0,.15-.1.6-.78a3.93,3.93,0,0,0,.36-.78c.07-.17.13-.33.21-.5l0,0,.13-.18h0v0h0c-.06,0-.1,0-.18-.07a.15.15,0,0,1-.06-.1l0-.1-.09-.25.27,0c.57-.06.58-.08.73-.43l.07-.18h0c.08-.18.18-.37.28-.58a5,5,0,0,0,.78-2.54v.07l-.62,1.91-.1.31-.24-.22,0,0h0c-.09,0-.12-.05-.2-.27s-.11-.43,0-.57h0l-.08,0-.18-.09.08-.19a.83.83,0,0,1,.44-.36l.06,0a1,1,0,0,1-.26-.13l-.37-.22,0,0-.22,0a2.86,2.86,0,0,1-1-.38l.07-.23a9,9,0,0,1-1-.15c-.64-.14-1.23-.29-1.82-.45l-1-.26,0-.28h0L46,36.55l-.18,0h0V36.1h.06l1.21.19.95.15a3.18,3.18,0,0,1-.84-.65h0L47,35.64l-.23-.24-.12-.14h0a.43.43,0,0,0-.14-.13c-.28,0-.32-.06-.49-.32a5,5,0,0,0-.41-.54h0l-.11-.12h0l-.24-.3a4.33,4.33,0,0,1-.27-.37c-.48-.67-1-1.55-1.32-2l-.6-1,0,0a.57.57,0,0,0-.08.41.73.73,0,0,0,.07.29h0a.68.68,0,0,1-.06.72,1.19,1.19,0,0,1-.37.42c-.19.17-.34.3,0,1h0v0h0c.12.2.48.66.85,1.14a9.77,9.77,0,0,1,1.12,1.65l0,.2-.2,0a.82.82,0,0,1-.59-.16l-.21.24-.1-.05h0l-.22-.11,0,.12.1.42-.39-.17h0a3.53,3.53,0,0,1-.88-.74l0,0-.06-.06a6,6,0,0,1-.72-.81h0a.45.45,0,0,1,0-.24,1.91,1.91,0,0,0-.26-.8l-.18-.34-.09-.18-.12-.2-.05-.07c-.22.34-.44.69-.63,1,.51.32.5.34.15.89-.05.06-.09.14-.15.23l.18-.06v.28a1.58,1.58,0,0,1-.06.52l.05,0,0,.3h0c0,.13,0,.28,0,.44s0,.33,0,.5a7.08,7.08,0,0,1-.48,2.48l-.13.27-.21-.22-.06-.07h0a.73.73,0,0,1-.1-.56.4.4,0,0,0-.09-.15h0l-.08-.1,0,0c-.39.17-.58.26-.89,0L38,38.75l.11-.16a1.4,1.4,0,0,1,1-.59c.23-.06.45-.11.55-.32h-.37l-.22,0h-.88l0,.1h0c0,.11,0,.23-.06.36a5.19,5.19,0,0,1-.6,1.85l-.1.12-.15-.07h0a1.05,1.05,0,0,1-.44-.56A3.24,3.24,0,0,1,36.6,39a.86.86,0,0,1,0-.36h0l0-.07-.06-.12a.93.93,0,0,1-.09-.75v-.05l0-.17,0,0c0,.16,0,.31-.05.45s-.08.55-.13.78a2.94,2.94,0,0,0-.07.5c0,.39,0,.55-.53.75L35.5,40l-.09-.18a1,1,0,0,0-.1-.18,1.21,1.21,0,0,1-.17-.41l0-.08,0-.09.08-.1-.13,0-.07,0a1.65,1.65,0,0,1-.44.91l-.13.09-.12-.1c-.32-.25-.32-.27-.32-.56a2.21,2.21,0,0,0,0-.32v-.14l.1-.06L34,38.66l-.19-.12.12-.18a1.67,1.67,0,0,1,.93-.6l0-.14h0l-.36,0h-.09l-.07-.06h0a9.15,9.15,0,0,1-.9-1.33l-.08,0-.25.14L33,36.16h0a13.89,13.89,0,0,0-1.3-2.08l-.15-.22h0l-1.92-2.73a.78.78,0,0,1-.2.38c.28.35.33.52,0,.91l0,0c.07.09.13.19.21.31a1.32,1.32,0,0,0,.12.16,1.72,1.72,0,0,1,.32.65l.07.3-.31,0h-.06a7.23,7.23,0,0,0,.87,1.08l.17.09-.08.18s0,0,0,0h0a.17.17,0,0,1,0,.2h0A.12.12,0,0,1,30.6,35.5Zm-.84,0,.44-.29.05,0h0v0c-.64-.7-2.93-3.92-4.3-6-.29-.43-.55-.82-.73-1.13a4.58,4.58,0,0,1-.36-.64h0l.32-.24a4.45,4.45,0,0,1,.95,1.13h0l0,0c0-.06,0-.1-.05-.14h0l.35-.2.35.3h0l.29-.22a3.64,3.64,0,0,1,.52.61A8.12,8.12,0,0,1,26.81,27h0l.32-.23a1.37,1.37,0,0,1,.53.59h0l.12.21h0a2.71,2.71,0,0,0,.17.25h0L28,28h0c.15.22.28.43.4.63s.22.36.34.53h0l3.16,4.51h0l.15.21a19.72,19.72,0,0,1,1.24,1.92l.28,0,.11.19c.24.38.64,1.06.87,1.33l.24,0h0a2.88,2.88,0,0,1,1.25,0l0-.27,0-.27.26.09a.51.51,0,0,1,.31.24h0a2.55,2.55,0,0,1,.78-.72l.29.29-.15.27a7.83,7.83,0,0,0,.61-.7h0l.23-.28h0l.35.24-.66,1.17H39l.22,0h.2a1.31,1.31,0,0,1,.4,0v-.06c0-.17,0-.33,0-.48v0a1.22,1.22,0,0,0-.15.17l0,0-.06.11-.39-.14h0a.69.69,0,0,1,.05-.13l0,0h0a3.35,3.35,0,0,1,.22-.34,2.69,2.69,0,0,0,.19-.32l-.14.2a3.62,3.62,0,0,1-.48.59h0l-.32-.27c.12-.21.24-.4.37-.6s.27-.41.39-.64.24-.39.32-.51l0-.08a1.33,1.33,0,0,1-.14.19,4.62,4.62,0,0,1-.34.41l-.36-.2a21.13,21.13,0,0,1,1.62-2.74l.36-.52.27-.36h0l.18-.19.36.2a4.16,4.16,0,0,1-.63,1.12l0,.07.18.07c.33.12.48.43.62.79h.41l0-.06h0v0h0c-.55-1-.28-1.2.06-1.49a1.13,1.13,0,0,0,.27-.3.36.36,0,0,0,0-.37h0a1.16,1.16,0,0,1-.1-.41h0a1,1,0,0,1,.14-.65.39.39,0,0,0,0-.24l0-.38.34.18,0,0,.11,0h0c.32.08.42.2.4.29s.05.16-.12.17l.52.82h0c.28.49.83,1.36,1.3,2a4.28,4.28,0,0,0,.26.36,3.2,3.2,0,0,0,.22.27h0L46,34h0c.24.28.36.47.45.59s.08.13.18.13h.09A.72.72,0,0,1,47,35h0l.1.12.2.2.2.18h0l.13.13.26-.24a2.65,2.65,0,0,1,.65.46,3.82,3.82,0,0,0,.79.58h0a.25.25,0,0,1,.12.18h0a.3.3,0,0,1,.08.08h0v.06a.18.18,0,0,0,0-.05v.05a.2.2,0,0,1,0,.17l.55.08h0l.93.11.61,0a7.33,7.33,0,0,1,1,.11h0l.08,0h.06l.18.08-.08.41h-.2a2.69,2.69,0,0,1,.45.11h0l-.08.42h-.09l.06.38,0,0,.05.05.1-.31c0-.09,0-.16,0-.22a1.76,1.76,0,0,1,.09-.42l.11-.29.23.2.06.06h0c.16,0,.14.07.15.18h0l.07.15c.4.87-.25,2.17-.72,3.12l-.27.56h0L53,42c-.18.41-.23.54-.56.61l.14.11-.12.17-.26.35-.19.46a4.2,4.2,0,0,1-.41.86c-.63,1-.74,1-1,1,0,0,0,.07,0,.11h0a.43.43,0,0,0,0,.12l0,.17-.16.06a1.15,1.15,0,0,1-.28.08l0,.11c.09-.11-.32-.06.46.46-.38,0-.45.09-.74-.07a.77.77,0,0,0-.21,0h-.05l.23.18-.23.17a1.85,1.85,0,0,1-.68.15.73.73,0,0,1,.17.27l.07.19-.17.08a1.77,1.77,0,0,1-.49.09l0,0h0l.17.17-.19.14a.24.24,0,0,1-.09.06h0l-.08,0h0l-.07,0h-.36l.06,0h0s0,0,0,0l.23.19-.25.15a1.41,1.41,0,0,1-.55.15.83.83,0,0,0,.08.12l.12.21-.21.1a1.87,1.87,0,0,1-.5.1l.26.15-.29.18,0,0h0a.81.81,0,0,1-.31.12h-.37l.06,0h0l.35.17-.34.2a.88.88,0,0,1-.38.1l0,.13c-.24.54-.47.63-.77.59l.11.27h-.32l-5.93-.08a7.29,7.29,0,0,1-.81,0h-.48v-.43H38.9a1.15,1.15,0,0,0,.53-.12h-.08l-.35,0h-.59a13.38,13.38,0,0,1-1.79-.05l0-.42a3,3,0,0,1,.67-.08.91.91,0,0,0,.34,0L37.34,50l.09-.4h.38a3.8,3.8,0,0,0-1.14,0,5.71,5.71,0,0,1-.58,0h0l0-.41a2.33,2.33,0,0,1,.38-.08l-.25,0h-.34a.23.23,0,0,1-.11,0h0a.57.57,0,0,1-.12-.15.34.34,0,0,1,0-.28,1.11,1.11,0,0,0-.41-.11l-.3,0h0l-.18-.06h0l-.15-.06h0c-.15-.09-.18-.16-.15-.22h0a2.81,2.81,0,0,0-1.49-.22,5.62,5.62,0,0,1-.72,0h0v-.42l.81-.08a1.42,1.42,0,0,0-.49,0H32.1L32,47.22a.62.62,0,0,1-.13-.26,2.78,2.78,0,0,1-.63-.11,3.58,3.58,0,0,0-.46-.08,10.28,10.28,0,0,0-1.12,0h-.41l-.14-.38.14-.1a4,4,0,0,0-1.32,0c-.52.07-.88.13-1.22-.26l-.19-.21.25-.12.13-.06a.29.29,0,0,1-.1-.06.18.18,0,0,1-.08-.1h0l-.14-.16-.22.18-.19.15.12.07.28.16-.26.19a2.27,2.27,0,0,1-1.4.1,5.83,5.83,0,0,0-1.38,0l-.13.48a4.31,4.31,0,0,0,2.77.91,2.2,2.2,0,0,1,1.74.59,2.49,2.49,0,0,1,.38.46h0l.06.11a1.12,1.12,0,0,1,.05.13h0a.82.82,0,0,1,0,.48l.05,0h0a3.49,3.49,0,0,0,.35.32,3.85,3.85,0,0,1,.74.8h0l0,.06a5,5,0,0,0,.86,1.1l.15.15a2.38,2.38,0,0,0,.43.35,3.09,3.09,0,0,1,.88.78,2.81,2.81,0,0,1,.45,1.17l0,.25H32l-.2,0h0c-.22-.07-.19-.16-.13-.29h0l-.06.15-.26-.1L31.11,54l-.41-.16.39-.22.11-.06-.12-.09,0-.05L31,53.32h0a.45.45,0,0,0-.36-.24l-.05-.35a1.07,1.07,0,0,0-1,.5c-.25.29-.47.55-.91.5l-.23,0,.05-.23.09-.42a2.48,2.48,0,0,0-.68.13,1.36,1.36,0,0,1-.38.08h0l-1.3-.2L25.71,53l.31-.3,0,0a3.29,3.29,0,0,1-.91-.12h0l0-.37c-.3,0-.57,0-.8-.06h0l-.09-.38,0,0H24l-.4,0h-.07l-.48,0,.35-.33.06,0c-.26,0-.52-.06-.76-.11l-.42-.08.32-.29.09-.09a2.07,2.07,0,0,1-.83-.2h0l-.26-.19.16-.1a1.14,1.14,0,0,1-.43-.19h0l-.09-.07-.07-.07h0l-.25-.26h0a1.1,1.1,0,0,1-.32-.13h0l-.24-.19.18-.11a.94.94,0,0,1-.49-.3l-.16-.19.05,0a1.68,1.68,0,0,1-.4-.11h0l-.23-.09.12-.21c0-.06,0,0,0,0v0h0a.29.29,0,0,1,0-.09,2.1,2.1,0,0,1-.37-.08l-.21-.07L19,47.7l.05-.12-.4-.08-.37-.08.26-.28.1-.09a1.61,1.61,0,0,1-.5-.17h0l-.28-.17.25-.17-.38-.08-.26-.07.13-.23a1.06,1.06,0,0,1,.11-.19,1,1,0,0,1-.51-.25h0L17,45.53l.15-.09-.11,0h0a.27.27,0,0,1-.22-.28.6.6,0,0,0-.05-.14l-.11-.22a.81.81,0,0,1-.31-.23l-.22-.29.11,0a.52.52,0,0,1-.15-.06h0l-.15-.1.07-.16a.75.75,0,0,1,.08-.18l-.13,0a.4.4,0,0,1-.33-.3l-.05-.14-.08-.2.09,0a.88.88,0,0,1-.33-.12L15,42.78l.21-.19,0,0a1,1,0,0,1-.26,0h0l-.17-.07,0-.17c0-.08,0-.11,0-.12a.08.08,0,0,1,0,0h0l0-.13-.16,0-.11,0,0-.11c-.07-.25-.06-.35,0-.42-.35-.15-.38-.32-.46-.67a2.44,2.44,0,0,0-.09-.37c0-.1,0-.2-.07-.29h0a1.5,1.5,0,0,1,0-.2h0c0-.25,0-.34,0-.36l-.12-.12-.19-.2.25-.13.11-.06-.19-.16.21-.17h0l-.11,0h-.16l-.14,0,0-.15a4.17,4.17,0,0,1,0-2.89c0-.12.06-.24.12-.46l0-.14.14,0h.08v-.07l.15,0a19.93,19.93,0,0,0,3-1.7l.56-.36.38-.25h0c.4-.27,2.13-1.42,3.23-2.1l.56-.33a2.8,2.8,0,0,1,.34-.19h0l.26.3a6.63,6.63,0,0,1-1.24,1.07,2.5,2.5,0,0,1,.41-.22h0l.43-.14-.17.42a11.39,11.39,0,0,1-2.31,1.83l.07,0h0L20,33l-.2.41a1.34,1.34,0,0,1-.29.37l.33-.15h0l.21.36-.23.18a2.08,2.08,0,0,1,.4-.16h0l.49-.12-.26.43a.24.24,0,0,1-.06.09l.11,0,.32-.13a1.45,1.45,0,0,0,.26-.19,2,2,0,0,1,.51-.32l.41-.19-.12.44-.05.18,0,.09-.09,0a8.19,8.19,0,0,0-.77.45l-.47.32c.26,0,.36,0,.42.14a.24.24,0,0,1,.06.13h.29a1,1,0,0,1,.31,0,.5.5,0,0,1,.21.08h0s0,0,.12,0a1.11,1.11,0,0,0,.7-.36h0a5.27,5.27,0,0,1,1.27-.84l.23-.12A1,1,0,0,1,25.3,34l.27.15-.24.2,0,0v0l-.09,0-.64.25h0a11.86,11.86,0,0,0-1.33.62l.13.2a.25.25,0,0,1,0,.33h0a.75.75,0,0,1,.33,0l0-.13.09-.13s2.47-1.6,3.23-1l.26.2h0a1.8,1.8,0,0,1,.39.2l.36.21h0l.89.36,0,0,0,0h0l.2.12.14,0h0a1.4,1.4,0,0,1,.28.14.91.91,0,0,1,.21.18V36l.3-.09h-.24Z"/><polygon class="cls-5" points="29.31 33.76 26.8 33.02 24.67 37.19 27.08 41.65 32.93 45.46 35.63 45.46 38.97 43.78 41.75 42.02 43.61 39.24 43.89 36.54 42.68 34.41 40.73 34.22 39.43 34.22 36 35.24 35.16 36.45 34.05 37.47 31.63 35.24 29.31 33.76"/><path class="cls-10" d="M35.27,35.13c2.47-1,5.84-2.51,8.66-.57s2.31,5.31.26,7.65a20.45,20.45,0,0,1-6.78,4.39c-1.92.76-2.28,1-4.35.37A20.65,20.65,0,0,1,29,45.31c-6.23-3.63-7.48-8.67-3.28-14.43,1.58-2.18,3.66-3.77,5.45-5.73,1.3-1.42,4.11-4.36,4.07-7.26-1.21,2-.93,2-3,3.8-1.17,1-2.56,2-3.84,3-2.44,1.8-5.32,4.19-6.9,6.92-4.28,7.4.12,14.09,7.85,16.65a29.11,29.11,0,0,0,5.48,1.37,24.18,24.18,0,0,0,5.55-1.47c3.42-1.38,6.34-3.26,7.93-5.9,2.11-3.52,1.63-8-2-9.22-3.31-1.12-9.25.22-11,2.1"/><path class="cls-11" d="M38.41,34.47c6.32.39,4.83,5.32,1.22,8-.86.65-4,2.54-5.22,2.39a14,14,0,0,1-5.34-2.42c-3.8-3.06-2.83-7-.32-10.7,1.7-2.48,5.68-5.78,6-9.45-4.12,6.54-12.91,9.92-10.39,17.22,1.09,3.15,4.9,5.38,7.8,6.51,1.48.57,2.12,1,3.68.43,14.09-5,9.66-14.66,2.56-12"/><path class="cls-11" d="M27.12,37.12c2.1-3.36,7.13-3.66,8.32-9.26a13.27,13.27,0,0,0-.14-5.41c-.45,3.83-1.35,5.85-3.39,8.1-1.23,1.37-5,4.17-4.79,6.57"/><polygon class="cls-10" points="31.35 51.64 37.92 51.65 37.94 50.32 31.36 50.3 31.35 51.64"/><polygon class="cls-10" points="32.31 53.48 36.95 53.49 36.95 52.13 32.38 52.12 32.31 53.48"/><path class="cls-1" d="M57.15,27.88l1-.24,1.13-1.18.14.55-.78.77,1.05.31.13.53-1.56-.51-1,.24Zm-.56-2,1.88-.64-.23-.67.38-.13.62,1.79-.38.13-.23-.67-1.88.65Zm-.52-1.39,2.21-.9.18.45-2.21.9Zm-.82-1.85,2.15-1,.2.44-1.78.83L56.33,24l-.37.17Zm.29-1.5.6-.73-.92.17Zm-.37,1.24-.27-.45.37-.45-.48-.83-.57.1L54,20.27l2.53-.39.26.44Zm-2.38-3.68,1.93-1.4,1,1.43-.33.24-.75-1-.43.31.7,1-.32.23-.71-1-.52.39.78,1.08-.33.23Zm-.2-2.35.23.27a1.68,1.68,0,0,0,.31.31.22.22,0,0,0,.16,0,.27.27,0,0,0,.17-.08.28.28,0,0,0,.1-.17.25.25,0,0,0-.05-.2,1.65,1.65,0,0,0-.22-.27L53,15.91Zm-1.36.54L53,15.28l.67.77a1.82,1.82,0,0,1,.31.46.5.5,0,0,1,0,.36.69.69,0,0,1-.65.5.73.73,0,0,1-.48-.21,1.2,1.2,0,0,1,0,.32,2.86,2.86,0,0,1-.11.46l-.16.53L52.26,18l.16-.61a3.58,3.58,0,0,0,.1-.42.36.36,0,0,0,0-.18,1.07,1.07,0,0,0-.14-.2l-.06-.07-.75.65Zm-1.52-3a.83.83,0,0,0-.25.59.6.6,0,0,0,.23.47.59.59,0,0,0,.49.14,1.16,1.16,0,0,0,.8-.94.59.59,0,0,0-.24-.46.63.63,0,0,0-.5-.16A.9.9,0,0,0,49.71,13.83Zm-.39-.31a1.42,1.42,0,0,1,.47-.4,1.27,1.27,0,0,1,.38-.11,1,1,0,0,1,.38,0,1.34,1.34,0,0,1,.89,1,1.26,1.26,0,0,1-.34.9,1.22,1.22,0,0,1-.82.49A1.26,1.26,0,0,1,49,14.41,1.23,1.23,0,0,1,49.32,13.52Zm-1.88.12L48.58,12,48,11.61l.23-.33,1.56,1.09-.24.33L49,12.3l-1.14,1.62Zm-2.5-1.52L46.1,10l.41.22.08,1.87.78-1.39.39.22L46.6,13l-.42-.23L46.09,11l-.76,1.36Zm-.84-.42,1.09-2.13.43.22-1.09,2.13ZM41.3,9.79l.46.1a.6.6,0,0,0,.06.39.53.53,0,0,0,.3.21.57.57,0,0,0,.36,0,.26.26,0,0,0,.18-.19.2.2,0,0,0,0-.15.35.35,0,0,0-.13-.15l-.34-.22a1.34,1.34,0,0,1-.44-.39.62.62,0,0,1-.06-.53.63.63,0,0,1,.56-.43,1.17,1.17,0,0,1,.47.07,1,1,0,0,1,.59.39.73.73,0,0,1,.06.58l-.46-.13a.44.44,0,0,0,0-.29.63.63,0,0,0-.6-.19.19.19,0,0,0-.12.11.18.18,0,0,0,0,.16,1.18,1.18,0,0,0,.37.29,2.13,2.13,0,0,1,.44.33.65.65,0,0,1,.18.31.71.71,0,0,1-.64.87,1.25,1.25,0,0,1-.52-.07,1,1,0,0,1-.6-.42A.92.92,0,0,1,41.3,9.79Zm-2.84.06L39,7.52l.71.16,0,1.69.79-1.49.7.16-.54,2.33-.43-.1.42-1.84-.89,1.73-.45-.11,0-1.93L38.9,10Zm-1-1.11-.22-.92-.43.84Zm.77,1-.52-.07-.14-.56L36.63,9l-.26.52-.51-.07,1.21-2.25.51.06Zm-4.36-.36,0-2.39,1.77,0v.4l-1.29,0V8l1.2,0v.4l-1.2,0V9l1.33,0v.4Zm-2-1.26.36,0a1.34,1.34,0,0,0,.43-.06A.28.28,0,0,0,32.77,8a.27.27,0,0,0,0-.18.26.26,0,0,0-.08-.19.3.3,0,0,0-.18-.08l-.35,0-.38,0Zm-.38,1.41L31.3,7.2l1-.08a2.14,2.14,0,0,1,.56,0,.52.52,0,0,1,.3.21.75.75,0,0,1,.13.37.62.62,0,0,1-.13.45.76.76,0,0,1-.46.25,1.52,1.52,0,0,1,.28.19,2.9,2.9,0,0,1,.3.36l.32.45-.58,0L32.65,9l-.28-.33a.6.6,0,0,0-.15-.09.83.83,0,0,0-.24,0h-.1l.07,1ZM29.22,7.92l.27,1.55.35-.06a1.52,1.52,0,0,0,.29-.07.59.59,0,0,0,.17-.13A.66.66,0,0,0,30.39,9a1.82,1.82,0,0,0,0-.44,1.35,1.35,0,0,0-.12-.41.63.63,0,0,0-.18-.21.48.48,0,0,0-.24-.07,2,2,0,0,0-.39,0Zm-.55-.32.87-.15a1.59,1.59,0,0,1,.45,0,.83.83,0,0,1,.4.16,1.09,1.09,0,0,1,.29.34,1.72,1.72,0,0,1,.17.54,1.56,1.56,0,0,1,0,.52,1,1,0,0,1-.18.45.84.84,0,0,1-.3.25A2,2,0,0,1,30,9.8l-.9.15Zm-2.2,2.11-.12-.38,1-.33.29.91a1.37,1.37,0,0,1-.33.38,1.68,1.68,0,0,1-.52.29,1.43,1.43,0,0,1-.67.05,1,1,0,0,1-.54-.3,1.44,1.44,0,0,1-.33-.56,1.34,1.34,0,0,1-.06-.68,1,1,0,0,1,.3-.56A1.14,1.14,0,0,1,26,8.24a1.07,1.07,0,0,1,.72,0,.87.87,0,0,1,.46.39l-.43.23a.43.43,0,0,0-.26-.2.59.59,0,0,0-.37,0A.64.64,0,0,0,25.7,9a.81.81,0,0,0,0,.63.93.93,0,0,0,.37.55.63.63,0,0,0,.54,0,.91.91,0,0,0,.27-.15,1,1,0,0,0,.2-.21L27,9.54Zm-3,2.15-1-2.18.43-.19,1.54,1.06-.64-1.46.4-.18,1,2.18-.45.2-1.51-1,.63,1.42Zm-.81.43-1.09-2.12L22,10l1.09,2.12Zm-2.38,1.45-1.27-2,.61-.38,1.23,1.15-.5-1.61.62-.38,1.26,2-.38.23-1-1.59L21.45,13l-.39.25-1.4-1.34,1,1.59Zm-2.36.09.29-.22a1.67,1.67,0,0,0,.32-.29.23.23,0,0,0,0-.16A.23.23,0,0,0,18.5,13a.28.28,0,0,0-.17-.12.3.3,0,0,0-.2,0l-.28.21-.3.23Zm.47,1.38-1.47-1.88.8-.62a1.46,1.46,0,0,1,.48-.29.5.5,0,0,1,.36,0,.64.64,0,0,1,.31.23.65.65,0,0,1,.15.45.77.77,0,0,1-.23.46.86.86,0,0,1,.32,0,2.13,2.13,0,0,1,.46.14l.52.18-.46.36-.59-.2-.42-.12a.53.53,0,0,0-.18,0,.73.73,0,0,0-.2.13l-.08.06.61.79Zm-2.4.64a.93.93,0,0,0,.56.33A.6.6,0,0,0,17,16a.57.57,0,0,0,.2-.47A.87.87,0,0,0,17,15a.89.89,0,0,0-.54-.33.65.65,0,0,0-.49.18.59.59,0,0,0-.21.48A.9.9,0,0,0,16,15.85Zm-.35.36a1.52,1.52,0,0,1-.34-.53,1.23,1.23,0,0,1-.06-.39,1.11,1.11,0,0,1,.08-.37,1.62,1.62,0,0,1,.31-.42,1.1,1.1,0,0,1,.84-.33,1.45,1.45,0,0,1,1.24,1.32,1.07,1.07,0,0,1-.39.81,1.13,1.13,0,0,1-.84.35A1.29,1.29,0,0,1,15.64,16.21Zm-.44,2.37L13.39,17l1.08-1.24.3.26-.75.88.42.37.66-.76.3.27-.65.75.76.67Zm-2,1.43.24-.4a.5.5,0,0,0,.68-.15.53.53,0,0,0,.12-.35.28.28,0,0,0-.12-.23.18.18,0,0,0-.14,0,.41.41,0,0,0-.19.08c-.05,0-.15.12-.31.25a1.28,1.28,0,0,1-.51.3.64.64,0,0,1-.52-.1.65.65,0,0,1-.23-.67,1.14,1.14,0,0,1,.21-.43,1,1,0,0,1,.55-.43.69.69,0,0,1,.57.11l-.27.41a.36.36,0,0,0-.29-.05.47.47,0,0,0-.24.2.51.51,0,0,0-.13.31.16.16,0,0,0,.08.15.15.15,0,0,0,.16,0,1.64,1.64,0,0,0,.39-.26,2,2,0,0,1,.44-.32.74.74,0,0,1,.35-.08.76.76,0,0,1,.37.15.7.7,0,0,1,.24.32.74.74,0,0,1,0,.42,1.61,1.61,0,0,1-.24.47,1.07,1.07,0,0,1-.58.44A.86.86,0,0,1,13.22,20Zm-.49,2.48L10.66,21.3l.23-.41,1.87-.05L11.38,20l.23-.39,2.06,1.2-.24.42-1.83.05L13,22.1Zm-1.32.65-.94-.08.66.67Zm1.23-.41-.22.48-.58,0-.41.86.41.41-.21.47L9.86,23.05l.21-.46ZM9.82,26.07l.12-.34a1.82,1.82,0,0,0,.11-.42.3.3,0,0,0-.05-.16.37.37,0,0,0-.16-.1.23.23,0,0,0-.2,0,.29.29,0,0,0-.15.14,2.11,2.11,0,0,0-.12.33l-.12.35ZM11,27,8.71,26.2l.33-1a1.74,1.74,0,0,1,.24-.51.57.57,0,0,1,.31-.18.66.66,0,0,1,.39,0,.63.63,0,0,1,.36.29.74.74,0,0,1,.06.52,1.06,1.06,0,0,1,.27-.18,3.2,3.2,0,0,1,.46-.13l.53-.12-.18.54-.61.16a3.43,3.43,0,0,0-.41.13.3.3,0,0,0-.14.1.74.74,0,0,0-.11.22l0,.1.94.32Zm-.31,1.47L8.73,28l-.16.69-.4-.09.43-1.85.39.09-.16.69,1.94.45Z"/><path d="M34,12.47h0A20.76,20.76,0,0,0,13.21,33.22h0A20.76,20.76,0,0,0,34,54h0A20.76,20.76,0,0,0,54.73,33.22h0A20.76,20.76,0,0,0,34,12.47m0-.57h0A21.32,21.32,0,0,1,55.3,33.22h0A21.34,21.34,0,0,1,34,54.55h0A21.34,21.34,0,0,1,12.64,33.23h0A21.32,21.32,0,0,1,34,11.9Z"/><path class="cls-12" d="M58.36,38.6l.12-1,1-.46-.9-.7.12-1,1.54,1.33,1.21.15-.11.89-1.21-.14Zm-.85,2.73.71-2.64.7.19-.24.88,2.11.57-.23.87-2.11-.57-.24.88ZM57,42.65l.32-.84,2.71,1-.32.84Zm.33,3.79.34-.78a.68.68,0,0,0,.33,0,.48.48,0,0,0,.34-.27.45.45,0,0,0,0-.31.25.25,0,0,0-.36-.19,1.07,1.07,0,0,0-.36.33,1.93,1.93,0,0,1-.7.59.69.69,0,0,1-.61,0,.74.74,0,0,1-.32-.31.79.79,0,0,1-.1-.49,1.75,1.75,0,0,1,.22-.69,1.47,1.47,0,0,1,.57-.66.86.86,0,0,1,.74,0l-.34.78a.41.41,0,0,0-.31,0,.47.47,0,0,0-.22.22.4.4,0,0,0,0,.24.22.22,0,0,0,.11.15.17.17,0,0,0,.14,0c.06,0,.13-.1.23-.22a3.82,3.82,0,0,1,.62-.64.81.81,0,0,1,.89-.09,1,1,0,0,1,.39.37A1,1,0,0,1,59,45a1.7,1.7,0,0,1-.21.68,1.39,1.39,0,0,1-.72.78A1.08,1.08,0,0,1,57.31,46.44Zm-1.94,1.63.2-.33a.65.65,0,0,0,.1-.22.25.25,0,0,0,0-.17.27.27,0,0,0-.12-.14.28.28,0,0,0-.23,0,.63.63,0,0,0-.24.25l-.21.33Zm1,1.68L53.9,48.21l.79-1.27a1.91,1.91,0,0,1,.4-.5.69.69,0,0,1,.41-.17.83.83,0,0,1,.47.14.8.8,0,0,1,.3.31.86.86,0,0,1,.09.39.93.93,0,0,1-.07.33.85.85,0,0,1,.22-.14.62.62,0,0,1,.2,0,1.08,1.08,0,0,1,.22,0l1,.08-.54.86-1-.06a.66.66,0,0,0-.27,0,.38.38,0,0,0-.18.15l0,.07,1,.62Zm-4.44.68,1.54-1.84.48.4-1,1.15.36.3.9-1.07.45.38-.9,1.07.44.37,1-1.19.5.42L54.15,52.3Zm-2.5,2.29.71-.61L52,53.26l-.89-2,.69-.6,1.09,2.9-.73.64Zm-1.16.83L49,53l1.71,2.35-.73.53Zm-3,1.83L46,55l1.76.85-.81-1.39.74-.43,1.45,2.52-.73.42-1.75-.83.8,1.38-.73.42ZM43.91,56l.84-.34.64,1.61a1.2,1.2,0,0,1,.11.48,1.09,1.09,0,0,1-.08.47,1,1,0,0,1-.24.36,1.9,1.9,0,0,1-.55.32l-.44.15a1.39,1.39,0,0,1-.43.05,1.46,1.46,0,0,1-.39-.12,1.22,1.22,0,0,1-.3-.24,1.54,1.54,0,0,1-.26-.43l-.65-1.6.83-.34L43.66,58a.5.5,0,0,0,.26.29.48.48,0,0,0,.39,0A.54.54,0,0,0,44.6,58a.51.51,0,0,0,0-.4Zm-5.65,1.71.87-.2.5,2.13L41,59.33l.17.7-2.25.51Zm-2.82.39.89-.13.3,2.17L38,60l.1.71L35.84,61Zm-1.69,0,.9,0,.1,2.9-.9,0Zm-3.43-.24.9.08-.09,1,1,.09.09-1,.9.08L32.84,61l-.9-.08.11-1.17-1-.08L31,60.8l-.89-.08ZM27.1,59l0-1.09-.6.92Zm0,.66-1-.28-.26.42L25,59.52,26.83,57l.94.27.25,3.1-.91-.26Zm-3.59-2.55.34.16a.88.88,0,0,0,.23.06.2.2,0,0,0,.17,0,.27.27,0,0,0,.13-.13.27.27,0,0,0,0-.23.61.61,0,0,0-.28-.21l-.35-.17ZM22,58.26l1.23-2.63,1.35.63a2,2,0,0,1,.55.34.68.68,0,0,1,.21.39.77.77,0,0,1-.08.48.64.64,0,0,1-.27.33.7.7,0,0,1-.37.14,1.09,1.09,0,0,1-.34,0,1.2,1.2,0,0,1,.17.2.81.81,0,0,1,.06.2.79.79,0,0,1,0,.22l0,.94L23.64,59l-.06-1a.82.82,0,0,0,0-.28.41.41,0,0,0-.17-.15l-.08,0-.49,1.07ZM20.5,54.14l2.09,1.2-.31.54L21,55.13l-.23.4,1.21.7-.29.51L20.45,56l-.29.5,1.34.77-.33.57-2.12-1.22ZM17.39,54l.44.7a1.5,1.5,0,0,1-.55.25,1.1,1.1,0,0,1-.54,0,1.71,1.71,0,0,1-.56-.34,1.85,1.85,0,0,1-.49-.61,1.18,1.18,0,0,1-.08-.71,1.67,1.67,0,0,1,.42-.81,1.52,1.52,0,0,1,1-.59,1.43,1.43,0,0,1,1.07.42,1.46,1.46,0,0,1,.51.74,1.28,1.28,0,0,1-.1.82l-.71-.39a.53.53,0,0,0,.06-.2.52.52,0,0,0,0-.25.58.58,0,0,0-.67-.32,1.45,1.45,0,0,0-.79,1,.54.54,0,0,0,.19.41.49.49,0,0,0,.39.14A.86.86,0,0,0,17.39,54ZM15.9,50.26l.62.66-2.13,2-.61-.66Zm-2.28-2.74.55.71-.8.63.6.77.81-.62.55.71L13,51.51l-.56-.71.93-.73-.6-.77-.93.72-.55-.71Zm-2.16-1.09.11.19c.09.15.17.25.26.28a.31.31,0,0,0,.25,0,.37.37,0,0,0,.16-.19.51.51,0,0,0-.08-.35L12,46.12ZM12.11,45l.73,1.31a1.08,1.08,0,0,1,.15.75.9.9,0,0,1-.46.53.88.88,0,0,1-.73.1,1.13,1.13,0,0,1-.61-.58L11,46.72l-.94.52-.44-.79Zm-2.39-.77.82-.72-1.09.13Zm-.5.42-.42-.93-.49.07L7.93,43,11,42.8l.4.9L9.22,45.88,8.84,45Zm-.31-4.44.1.37a1.1,1.1,0,0,0,.1.22.23.23,0,0,0,.12.12.37.37,0,0,0,.18,0,.26.26,0,0,0,.18-.14.53.53,0,0,0,0-.35l-.1-.38ZM7,39.83l2.81-.75.39,1.44a2.64,2.64,0,0,1,.1.64.71.71,0,0,1-.17.41.8.8,0,0,1-.42.25.79.79,0,0,1-.43,0,.82.82,0,0,1-.35-.2,1,1,0,0,1-.19-.28,1.18,1.18,0,0,1,0,.26,1.08,1.08,0,0,1-.11.18,1.4,1.4,0,0,1-.14.16l-.71.64-.26-1,.74-.69a.68.68,0,0,0,.17-.22.36.36,0,0,0,0-.23l0-.07-1.14.3Zm.56-2.45.6-.1.24,1.37-1.22.21a2.71,2.71,0,0,1-.49-.63,2.4,2.4,0,0,1-.22-.7,1.74,1.74,0,0,1,0-.86,1.18,1.18,0,0,1,.43-.59,1.68,1.68,0,0,1,.75-.31,1.6,1.6,0,0,1,.85,0,1.18,1.18,0,0,1,.63.47,1.86,1.86,0,0,1,.28.76,2.37,2.37,0,0,1,0,.72.94.94,0,0,1-.2.44,1,1,0,0,1-.42.31l-.3-.82a.58.58,0,0,0,.22-.22.63.63,0,0,0,0-.34.61.61,0,0,0-.29-.43,1,1,0,0,0-.67-.06,1,1,0,0,0-.63.29.67.67,0,0,0-.12.53.88.88,0,0,0,.1.27,1.13,1.13,0,0,0,.2.28l.27,0Z"/><line class="cls-13" x1="77.79" y1="64.59" x2="273.46" y2="64.59"/><text class="cls-14" transform="translate(162.25 61)">University under section 2(f) of UGC </text><text class="cls-14" transform="translate(251.13 61)">Act, 1956 </text></svg>